<svg width="100" height="100" viewBox="0 0 100 100" fill="none" xmlns="http://www.w3.org/2000/svg">
<path d="M91.33 49.665C91.33 26.6541 72.6759 8 49.665 8C26.6541 8 8 26.6541 8 49.665C8 72.6759 26.6541 91.33 49.665 91.33C72.6759 91.33 91.33 72.6759 91.33 49.665Z" fill="#BA3A11"/>
<path d="M66.5469 39.029H32.4531C31.9423 39.029 31.4954 39.2205 31.1123 39.6036C30.7292 39.9867 30.5377 40.4336 30.5377 40.9444L32.9639 73.1867C33.0064 73.74 33.2618 74.1976 33.73 74.5594C34.1982 74.9212 34.8367 75.1021 35.6454 75.1021H63.3546C64.1208 75.1021 64.738 74.9212 65.2062 74.5594C65.6744 74.1976 65.951 73.74 66.0362 73.1867L68.4623 40.9444C68.4623 40.4336 68.2708 39.9867 67.8877 39.6036C67.5046 39.2205 67.0577 39.029 66.5469 39.029ZM39.54 71.2713C39.1144 71.2713 38.7313 71.0798 38.3908 70.6967C38.0503 70.3136 37.88 69.8667 37.88 69.3559L36.22 44.7113C36.22 44.2005 36.4115 43.7643 36.7946 43.4025C37.1777 43.0407 37.6246 42.8598 38.1354 42.8598C38.6462 42.8598 39.0931 43.0407 39.4762 43.4025C39.8592 43.7643 40.0508 44.2005 40.0508 44.7113L41.2 69.3559C41.2 69.8667 41.0404 70.3136 40.7212 70.6967C40.4019 71.0798 40.0082 71.2713 39.54 71.2713ZM51.16 69.2921C51.16 69.8454 51.0004 70.3136 50.6812 70.6967C50.3619 71.0798 49.9682 71.2713 49.5 71.2713C49.0318 71.2713 48.6381 71.0798 48.3189 70.6967C47.9996 70.3136 47.84 69.8454 47.84 69.2921L47.5846 44.7113C47.5846 44.2005 47.7762 43.7643 48.1592 43.4025C48.5423 43.0407 48.9892 42.8598 49.5 42.8598C50.0108 42.8598 50.4577 43.0407 50.8408 43.4025C51.2239 43.7643 51.4154 44.2005 51.4154 44.7113L51.16 69.2921ZM61.12 69.3559C61.12 69.8667 60.9498 70.3136 60.6092 70.6967C60.2687 71.0798 59.8856 71.2713 59.46 71.2713C58.9918 71.2713 58.5981 71.0798 58.2789 70.6967C57.9596 70.3136 57.8 69.8667 57.8 69.3559L58.9492 44.7113C58.9492 44.2005 59.1408 43.7643 59.5239 43.4025C59.9069 43.0407 60.3539 42.8598 60.8646 42.8598C61.3754 42.8598 61.8223 43.0407 62.2054 43.4025C62.5885 43.7643 62.78 44.2005 62.78 44.7113L61.12 69.3559ZM67.5685 30.729L56.14 28.8136C55.6292 28.7285 55.31 28.4093 55.1823 27.8559L54.6715 25.749C54.5013 24.8977 54.2033 24.3444 53.7777 24.089C53.5223 23.9613 53.0541 23.8975 52.3731 23.8975H46.6269C45.9459 23.8975 45.4564 23.9613 45.1585 24.089C44.7328 24.3444 44.4562 24.8977 44.3285 25.749L43.8177 27.8559C43.7326 28.4093 43.4133 28.7285 42.86 28.8136L31.4315 30.729C30.6228 30.8567 29.9524 31.1653 29.4204 31.6548C28.8883 32.1443 28.6223 32.7508 28.6223 33.4744V35.2621C28.6223 35.6452 28.7606 35.9644 29.0373 36.2198C29.314 36.4752 29.6439 36.6028 30.0269 36.6028H68.9731C69.3562 36.6028 69.686 36.4752 69.9627 36.2198C70.2394 35.9644 70.3777 35.6452 70.3777 35.2621V33.4744C70.3777 32.7508 70.1117 32.1443 69.5796 31.6548C69.0476 31.1653 68.3772 30.8567 67.5685 30.729Z" fill="white" stroke="white" stroke-width="0.0638462"/>
</svg>
