<svg width="100" height="100" viewBox="0 0 100 100" fill="none" xmlns="http://www.w3.org/2000/svg">
<path d="M91.6666 49.9997C91.6666 73.0101 73.0104 91.6663 50 91.6663C26.9896 91.6663 8.33331 73.0101 8.33331 49.9997C8.33331 26.9893 26.9896 8.33301 50 8.33301C73.0104 8.33301 91.6666 26.9893 91.6666 49.9997Z" fill="#2196F3"/>
<path d="M45.2 45.5263H54.8V71H45.2V45.5263ZM56 32.7895C56 35.9829 53.3096 38.5789 50 38.5789C46.6904 38.5789 44 35.9829 44 32.7895C44 29.596 46.6904 27 50 27C53.3096 27 56 29.596 56 32.7895Z" fill="white"/>
</svg>
