<svg width="100" height="100" viewBox="0 0 100 100" fill="none" xmlns="http://www.w3.org/2000/svg">
<path d="M91.33 49.665C91.33 26.6541 72.6759 8 49.665 8C26.6541 8 8 26.6541 8 49.665C8 72.6759 26.6541 91.33 49.665 91.33C72.6759 91.33 91.33 72.6759 91.33 49.665Z" fill="#E8BC21"/>
<path d="M59.8082 29.7097C60.6888 29.345 61.6325 29.1572 62.5856 29.1572C63.5387 29.1572 64.4824 29.345 65.3631 29.7097C66.2435 30.0744 67.0436 30.609 67.7176 31.2829C68.3915 31.9569 68.9261 32.7569 69.2909 33.6375C69.6555 34.518 69.8432 35.4618 69.8432 36.4149C69.8432 37.3679 69.6555 38.3117 69.2909 39.1923C68.9261 40.0728 68.3915 40.8729 67.7176 41.5468L66.6634 42.6009L56.3997 32.337L57.4536 31.2829C58.1276 30.609 58.9277 30.0744 59.8082 29.7097Z" fill="white"/>
<path d="M53.5226 35.2139L32.5228 56.2137C32.2725 56.4639 32.0918 56.7754 31.9987 57.1169L29.2286 67.2738C29.0365 67.9781 29.2365 68.7314 29.7527 69.2475C30.269 69.7638 31.0222 69.9638 31.7265 69.7718L41.8835 67.0016C42.225 66.9085 42.5364 66.7278 42.7867 66.4774L63.7864 45.4778L53.5226 35.2139Z" fill="white"/>
</svg>
