<svg width="100" height="100" viewBox="0 0 100 100" fill="none" xmlns="http://www.w3.org/2000/svg">
<path d="M91 49.5C91 26.5802 72.4198 8 49.5 8C26.5802 8 8 26.5802 8 49.5C8 72.4198 26.5802 91 49.5 91C72.4198 91 91 72.4198 91 49.5Z" fill="#EA1B23"/>
<path d="M63.6745 19.8574H43.9764H42.45L41.3714 20.9359L26.4597 35.8486L25.3812 36.9271V38.4528V69.1973C25.3812 74.6812 29.8424 79.1432 35.3273 79.1432H63.6745C69.1576 79.1432 73.6189 74.6812 73.6189 69.1973V29.8035C73.6189 24.3187 69.1576 19.8574 63.6745 19.8574ZM69.937 69.1971C69.937 72.6567 67.1332 75.4605 63.6745 75.4605H35.3273C31.8669 75.4605 29.0631 72.6567 29.0631 69.1971V38.4526H38.7568C41.6383 38.4526 43.9764 36.1162 43.9764 33.2339V23.5401H63.6745C67.1332 23.5401 69.937 26.3439 69.937 29.8035V69.1971Z" fill="white" stroke="white" stroke-width="0.115792"/>
<path d="M39.7673 49.1279H36.4639C35.8349 49.1279 35.4581 49.537 35.4581 50.1498V58.69C35.4581 59.4296 35.9449 59.9172 36.6208 59.9172C37.2821 59.9172 37.7688 59.4297 37.7688 58.69V56.0955C37.7688 56.0324 37.8011 56.0009 37.8642 56.0009H39.7673C42.0942 56.0009 43.4945 54.5852 43.4945 52.5721C43.4946 50.5274 42.1104 49.1279 39.7673 49.1279ZM39.6252 54.0031H37.8642C37.8011 54.0031 37.7688 53.9716 37.7688 53.9093V51.2195C37.7688 51.1564 37.8011 51.125 37.8642 51.125H39.6252C40.6001 51.125 41.1822 51.7071 41.1822 52.5722C41.1823 53.4371 40.6001 54.0031 39.6252 54.0031Z" fill="white" stroke="white" stroke-width="0.115792"/>
<path d="M48.8274 49.1279H46.2953C45.6663 49.1279 45.2895 49.537 45.2895 50.1498V58.816C45.2895 59.4297 45.6662 59.8226 46.2953 59.8226H48.8274C51.1074 59.8226 52.5239 59.099 53.0897 57.3535C53.2935 56.7398 53.405 56.0009 53.405 54.4752C53.405 52.9497 53.2934 52.2107 53.0897 51.5971C52.5237 49.8515 51.1074 49.1279 48.8274 49.1279ZM50.8729 56.5515C50.6045 57.4004 49.8348 57.7626 48.7643 57.7626H47.6955C47.6324 57.7626 47.6001 57.7311 47.6001 57.6681V51.2826C47.6001 51.2195 47.6324 51.188 47.6955 51.188H48.7643C49.8348 51.188 50.6045 51.5502 50.8729 52.3992C50.9829 52.7614 51.0605 53.3904 51.0605 54.4753C51.0605 55.5603 50.9828 56.1893 50.8729 56.5515Z" fill="white" stroke="white" stroke-width="0.115792"/>
<path d="M61.6775 49.1279H56.4887C55.8597 49.1279 55.4813 49.537 55.4813 50.1498V58.69C55.4813 59.4296 55.9697 59.9172 56.6456 59.9172C57.3052 59.9172 57.7935 59.4297 57.7935 58.69V55.6387C57.7935 55.5764 57.8242 55.5449 57.8873 55.5449H60.9079C61.5838 55.5449 61.9766 55.1359 61.9766 54.5537C61.9766 53.9715 61.5838 53.5634 60.9079 53.5634H57.8873C57.8242 53.5634 57.7935 53.5319 57.7935 53.4688V51.2195C57.7935 51.1564 57.8242 51.125 57.8873 51.125H61.6775C62.3227 51.125 62.748 50.7005 62.748 50.1346C62.7479 49.5523 62.3226 49.1279 61.6775 49.1279Z" fill="white" stroke="white" stroke-width="0.115792"/>
</svg>
