<svg version="1.1" id="Layer_1" xmlns="http://www.w3.org/2000/svg" xmlns:xlink="http://www.w3.org/1999/xlink" x="0px" y="0px"
	 width="700px" height="100px" viewBox="0 0 1918 304" enable-background="new 0 0 1918 304" xml:space="preserve">
<path fill="#028948" opacity="1.000000" stroke="none"
	d="
M2.000000,1.000000
	C640.937988,1.000000 1279.875977,1.000000 1918.906982,1.000000
	C1918.906982,102.261421 1918.906982,203.522949 1918.906982,305.000000
	C1280.300659,305.000000 641.601196,305.000000 2.458976,304.531372
	C2.010762,203.041855 2.005381,102.020927 2.000000,1.000000
M973.070984,113.116524
	C972.913208,112.948174 972.755371,112.779823 972.634277,111.834671
	C972.941223,110.539345 973.229187,109.239166 973.558167,107.949455
	C976.107300,97.954308 978.808350,87.994949 981.162231,77.954147
	C982.476074,72.349754 979.429382,69.750595 973.851746,71.246284
	C969.480225,72.418564 968.146912,75.964104 967.137817,79.778618
	C961.436157,101.331795 955.711121,122.878799 950.039001,144.439713
	C948.219116,151.357513 946.308838,158.264435 944.865356,165.264084
	C943.822693,170.319641 946.883362,172.837845 951.869751,171.577591
	C956.194641,170.484528 957.824341,167.124893 958.872620,163.270920
	C961.536194,153.478546 964.096069,143.656372 966.898315,133.903824
	C969.232361,125.780350 974.488525,120.385803 982.736450,118.086304
	C996.273743,114.312134 1003.169861,120.919327 1000.025696,134.654251
	C999.840149,135.464508 999.615112,136.265701 999.408997,137.071228
	C997.098877,146.097916 994.600403,155.083633 992.622375,164.182510
	C992.173889,166.245697 992.822876,169.665558 994.250549,170.715820
	C995.793945,171.851227 999.196960,171.669891 1001.133423,170.722778
	C1003.111328,169.755402 1004.595703,167.325195 1005.733521,165.229828
	C1006.738342,163.379379 1007.024719,161.121735 1007.530823,159.020416
	C1010.139404,148.190887 1013.451965,137.465469 1015.117920,126.491043
	C1017.180420,112.905106 1008.422668,104.233627 994.661072,104.536423
	C986.321289,104.719925 979.755310,108.692871 973.070984,113.116524
M301.463226,188.020096
	C320.720520,264.754456 396.256927,312.381378 473.635590,296.577515
	C550.509644,280.876709 601.742615,207.927567 589.016052,130.077713
	C579.717285,73.196144 547.003418,33.440983 492.664001,14.534427
	C437.185730,-4.768391 385.860352,6.259997 343.001740,46.600449
	C302.379791,84.835663 289.613647,132.751495 301.463226,188.020096
M1225.217407,90.230621
	C1222.655396,85.558121 1220.020996,80.923424 1217.557617,76.199501
	C1215.980713,73.175812 1213.677856,71.973236 1210.281738,72.059975
	C1203.956055,72.221535 1197.622925,72.067070 1191.293823,72.133591
	C1189.900879,72.148216 1188.511841,72.536293 1186.440430,72.858162
	C1187.513794,75.156822 1188.171509,76.819969 1189.033081,78.369873
	C1195.344116,89.723312 1201.662354,101.073051 1208.046875,112.385223
	C1212.244507,119.822441 1212.105103,121.175980 1205.893311,126.896172
	C1191.678467,139.985947 1177.470093,153.082977 1163.197754,166.109619
	C1161.899902,167.294052 1160.158081,167.991882 1158.622559,168.915680
	C1159.053345,169.553558 1159.484253,170.191452 1159.915161,170.829330
	C1166.829956,170.829330 1173.755249,170.595123 1180.655884,170.907166
	C1185.716309,171.135986 1189.599731,169.441849 1193.189209,165.994019
	C1200.997192,158.494141 1209.037109,151.236206 1216.952026,143.847076
	C1222.138428,139.005127 1222.563599,139.028076 1225.879028,144.992203
	C1229.844116,152.124649 1233.863159,159.228989 1237.698364,166.430954
	C1239.376709,169.582993 1241.627319,170.955231 1245.275757,170.899429
	C1256.601440,170.726181 1267.933105,170.711945 1279.258545,170.886032
	C1283.119629,170.945374 1285.018066,169.477783 1285.896362,165.759323
	C1287.617554,158.471649 1289.734009,151.277985 1291.505493,144.001297
	C1292.358765,140.496521 1294.330200,139.084610 1297.889282,139.094223
	C1318.879639,139.150894 1339.870361,139.140671 1360.860718,139.062668
	C1365.125366,139.046814 1366.596436,140.516769 1365.301147,144.854080
	C1363.158569,152.028763 1361.399658,159.317307 1359.410522,166.538956
	C1358.570679,169.587830 1359.532104,170.923309 1362.762573,170.823990
	C1366.757080,170.701187 1370.791870,170.463776 1374.747681,170.871704
	C1379.507324,171.362518 1381.555786,169.456390 1382.691650,164.921036
	C1388.029785,143.606369 1393.732910,122.383476 1399.138794,101.085411
	C1403.690918,83.150528 1394.802856,71.944786 1376.406128,72.032883
	C1358.415405,72.119049 1340.424316,72.189705 1322.433594,72.148193
	C1298.842896,72.093773 1285.117676,82.564926 1279.040283,105.428078
	C1274.678223,121.837585 1270.321167,138.248489 1265.945312,154.654327
	C1265.517334,156.258698 1264.971802,157.831726 1264.151367,160.484467
	C1257.391357,148.362015 1251.499512,137.360931 1245.155273,126.627197
	C1242.504150,122.141769 1243.247437,119.291313 1246.988403,115.914337
	C1261.207764,103.078247 1275.191406,89.980774 1289.238281,76.954292
	C1290.473755,75.808647 1291.528931,74.468651 1293.679810,72.108627
	C1285.347778,72.108627 1278.572510,72.295395 1271.813477,72.045715
	C1266.968384,71.866745 1263.192139,73.434990 1259.727539,76.803650
	C1251.965576,84.350594 1243.902466,91.587006 1236.093506,99.086845
	C1233.077759,101.983177 1231.066895,101.684319 1229.307495,97.944183
	C1228.174438,95.535820 1226.833984,93.225098 1225.217407,90.230621
M729.626831,75.810120
	C726.169067,74.721848 722.743042,72.825760 719.247986,72.688728
	C705.935791,72.166756 692.601562,72.192253 679.275146,72.056313
	C674.270691,72.005264 671.200439,74.453506 669.915161,79.340851
	C662.631348,107.037117 655.234375,134.703796 648.030823,162.420807
	C646.378906,168.776901 648.026428,170.660385 654.620667,170.741394
	C664.616943,170.864243 674.615845,170.783813 684.612061,170.909149
	C700.989929,171.114487 715.068848,166.102600 725.743225,153.138916
	C725.884705,152.967010 726.319641,153.036636 726.617920,152.995758
	C728.444336,168.700058 733.291992,173.358215 748.616455,172.039597
	C755.180542,171.474777 761.544617,168.585480 767.125732,167.000519
	C769.483887,168.581070 772.035339,171.652817 774.252686,171.428070
	C776.943665,171.155334 780.937134,168.556534 781.622986,166.174133
	C785.671265,152.112061 789.203979,137.881577 792.309509,123.577377
	C793.644897,117.426392 791.017395,112.117111 785.507080,108.606400
	C775.674377,102.341827 751.398926,103.422791 742.481567,110.965782
	C740.803162,112.385513 740.737000,115.711281 739.926941,118.157524
	C742.130676,118.698776 744.416687,119.905098 746.521362,119.644936
	C751.118103,119.076744 755.577454,117.255119 760.173096,116.846161
	C776.154846,115.424011 781.030640,121.958443 775.718506,137.210983
	C775.627930,137.471024 775.269470,137.637741 774.691223,138.158493
	C759.113953,128.653961 744.369385,130.840195 730.465210,143.194443
	C732.885925,130.993896 730.088074,121.997551 719.198303,118.463997
	C724.518250,112.574280 730.615356,107.630920 734.331543,101.291779
	C740.091553,91.466454 737.969666,82.727745 729.626831,75.810120
M1411.849365,75.388313
	C1410.049438,82.147171 1408.243652,88.904465 1406.450806,95.665230
	C1400.346924,118.684761 1394.236938,141.702667 1388.153687,164.727661
	C1386.625732,170.510971 1386.961182,170.865433 1393.155396,170.776703
	C1395.987793,170.736130 1398.822510,170.687027 1401.653809,170.748581
	C1409.143188,170.911423 1409.477173,170.657791 1411.431885,163.198227
	C1416.075562,145.477570 1420.729248,127.759506 1425.410278,110.048714
	C1425.773071,108.676613 1426.382202,107.369659 1427.088623,105.459900
	C1428.187622,106.792572 1428.895142,107.473122 1429.394409,108.282158
	C1439.282715,124.305161 1449.932495,139.922592 1458.801025,156.492996
	C1468.169189,173.997070 1469.327759,170.987762 1484.924805,170.915451
	C1488.980225,170.896637 1490.969360,169.368286 1491.925049,165.478531
	C1494.428345,155.291031 1497.159180,145.158691 1499.859497,135.020386
	C1504.788452,116.513885 1509.755005,98.017372 1514.718384,79.520020
	C1516.595215,72.524826 1516.138062,71.932892 1509.081787,72.172676
	C1506.585938,72.257500 1504.081299,72.320496 1501.588623,72.211418
	C1494.458496,71.899391 1493.665283,72.450363 1491.877197,79.250175
	C1487.218018,96.967415 1482.555054,114.683670 1477.861084,132.391708
	C1477.518555,133.683929 1476.916992,134.907501 1476.124634,136.975281
	C1474.651978,134.723801 1473.729736,133.370071 1472.863770,131.981277
	C1461.578857,113.882988 1450.304688,95.777893 1439.016724,77.681534
	C1438.224487,76.411728 1437.485840,75.064705 1436.476807,73.982269
	C1433.619629,70.916733 1415.213745,71.463211 1411.849365,75.388313
M1591.396484,109.370392
	C1574.582642,109.509399 1557.768799,109.672005 1540.954712,109.774193
	C1535.308838,109.808510 1535.012939,109.318314 1536.541138,103.589378
	C1538.901611,94.740181 1541.210693,85.876907 1543.635742,77.045441
	C1544.569702,73.643829 1543.737183,71.952927 1539.929199,72.113983
	C1536.269531,72.268761 1532.554077,72.517960 1528.942749,72.076027
	C1523.437256,71.402298 1521.308960,73.894951 1520.124634,78.962440
	C1517.510742,90.146988 1514.386475,101.212845 1511.436401,112.318100
	C1506.776245,129.860596 1502.070923,147.391098 1497.422363,164.936676
	C1496.066895,170.052032 1496.673340,170.774979 1501.971069,170.793411
	C1505.803589,170.806747 1509.647095,170.630157 1513.465454,170.867188
	C1517.349365,171.108292 1519.218140,169.425980 1520.120605,165.738129
	C1522.376343,156.519928 1525.004028,147.392136 1527.215698,138.164093
	C1528.203613,134.042328 1530.297974,132.500183 1534.567261,132.555588
	C1550.062622,132.756744 1565.562256,132.634857 1581.060181,132.667175
	C1582.660156,132.670502 1584.259644,132.889999 1586.423950,133.051254
	C1585.987061,135.386749 1585.765991,137.164307 1585.314575,138.881256
	C1582.985596,147.738907 1580.636108,156.591614 1578.212769,165.423843
	C1577.153687,169.284286 1578.209106,171.092575 1582.482544,170.866714
	C1586.803345,170.638336 1591.202393,171.206711 1595.451538,170.607300
	C1597.389893,170.333847 1600.198242,168.407242 1600.667114,166.697159
	C1608.857300,136.828308 1616.730713,106.872665 1624.719727,76.948410
	C1625.676025,73.365852 1624.407959,71.993378 1620.810913,72.123169
	C1617.150024,72.255257 1613.450195,72.443192 1609.822144,72.071884
	C1604.732056,71.550949 1602.200073,73.454376 1601.112671,78.537132
	C1599.372314,86.671944 1597.124023,94.702995 1594.913086,102.729065
	C1594.314819,104.900749 1593.078369,106.896645 1591.396484,109.370392
M1116.072021,133.335464
	C1103.150269,130.518951 1091.854858,133.766495 1081.341431,144.148392
	C1082.217773,139.657913 1082.757935,136.911102 1083.289551,134.162613
	C1086.276611,118.719086 1077.450439,106.624992 1061.848022,104.779457
	C1037.600586,101.911354 1013.091675,124.661011 1014.209900,148.998062
	C1014.839233,162.694595 1022.685913,170.892014 1036.290527,172.117096
	C1051.509155,173.487518 1063.549072,167.481735 1073.220337,156.124969
	C1074.317749,154.836319 1074.817749,153.038879 1075.594727,151.477341
	C1076.146973,152.039200 1076.699219,152.601044 1077.251465,153.162903
	C1080.840942,170.281479 1086.840698,174.817017 1103.299683,171.769043
	C1108.701294,170.768738 1113.788208,168.069611 1117.832886,166.583221
	C1120.439941,168.524384 1122.479492,171.163498 1124.918579,171.607544
	C1129.006714,172.351776 1131.621704,169.402588 1133.026611,165.633850
	C1133.432739,164.544678 1133.723755,163.410492 1134.029663,162.286606
	C1135.996826,155.056366 1138.108887,147.860718 1139.864502,140.579224
	C1141.266479,134.765488 1142.614624,128.889481 1143.284180,122.961777
	C1144.016235,116.480515 1141.647827,110.823669 1135.415894,108.112617
	C1121.338379,101.988701 1107.427979,103.669296 1093.991821,110.341759
	C1091.270386,111.693222 1089.132324,114.190529 1090.687378,117.746628
	C1092.276855,121.381218 1095.274170,120.133934 1098.031006,119.621201
	C1103.576416,118.589859 1109.093140,117.188019 1114.687866,116.702034
	C1119.744873,116.262756 1125.054565,116.981064 1127.634033,122.273323
	C1130.334839,127.814705 1128.221680,133.111557 1126.355103,138.336761
	C1122.747559,136.532761 1119.792603,135.055176 1116.072021,133.335464
M884.287292,118.360008
	C899.507874,114.152412 906.308655,120.689026 902.453674,135.848083
	C900.075684,145.199341 897.444763,154.494064 895.403198,163.917236
	C894.929871,166.101990 895.828857,170.327133 897.093201,170.770477
	C899.482788,171.608307 902.994507,171.087463 905.281189,169.792038
	C907.098450,168.762558 908.209351,165.864670 908.895691,163.574982
	C911.092285,156.247101 913.144470,148.862335 914.868469,141.410706
	C916.249939,135.439514 917.785828,129.362473 917.986023,123.290634
	C918.345642,112.378052 911.008118,104.622368 900.123657,104.844879
	C894.368896,104.962509 888.532776,107.061432 882.987793,108.995377
	C880.163940,109.980309 877.902466,112.577797 874.506897,115.099838
	C875.287476,111.844826 875.813477,109.479263 876.423889,107.135689
	C878.856018,97.798538 881.532166,88.516220 883.606873,79.100975
	C884.112915,76.804382 883.500366,72.808273 881.964844,71.814552
	C878.674988,69.685562 874.786560,70.776772 872.296326,74.137230
	C871.148315,75.686485 870.440308,77.674019 869.934448,79.569977
	C862.514954,107.378059 855.157776,135.202759 847.803040,163.028091
	C846.941406,166.287643 845.739746,169.825653 850.267944,171.380035
	C854.525085,172.841385 857.841309,171.214615 859.896484,167.364655
	C860.899902,165.484955 861.470215,163.344635 862.041138,161.268555
	C864.423218,152.606628 866.697937,143.915207 869.075867,135.252121
	C871.227844,127.412399 875.664856,121.516640 884.287292,118.360008
M806.471985,153.635635
	C800.639160,139.020020 810.395691,121.027687 826.313843,116.984215
	C832.941772,115.300606 838.852112,116.164375 843.636658,121.503212
	C846.506470,124.705429 849.744568,125.431053 853.296631,122.640602
	C856.576477,120.064125 856.868408,116.425850 854.143311,112.429970
	C850.651245,107.309479 845.349243,105.566154 839.566101,104.874779
	C815.960449,102.052742 793.782959,119.647743 790.816101,143.475250
	C789.875977,151.025894 790.633728,158.144913 795.989868,164.055359
	C807.222351,176.450287 834.912903,174.556808 844.094604,160.583450
	C845.146362,158.982819 845.097839,155.590591 844.054810,154.043259
	C843.310974,152.939804 839.760559,152.817932 837.964172,153.527649
	C834.450806,154.915787 831.437012,157.539810 827.950684,159.030823
	C819.575562,162.612686 812.316833,160.828491 806.471985,153.635635
M1564.590942,221.135071
	C1569.863037,216.221588 1575.135132,211.308121 1580.407104,206.394638
	C1580.764282,206.652863 1581.121338,206.911087 1581.478516,207.169312
	C1579.835571,213.688354 1578.192627,220.207397 1576.565796,226.663025
	C1584.359375,229.522949 1585.716431,228.909256 1587.649780,221.771515
	C1589.913208,213.415802 1592.115234,205.043442 1594.329590,196.674530
	C1595.246826,193.207703 1596.127197,189.731049 1597.022339,186.266373
	C1589.713867,184.463150 1587.986938,184.879456 1583.328857,189.305313
	C1576.745483,195.560822 1570.168945,201.823624 1563.201416,208.452576
	C1562.131104,206.246490 1561.372192,204.801910 1560.717896,203.311310
	C1558.576416,198.432480 1556.354004,193.584076 1554.390747,188.633575
	C1552.674438,184.306152 1549.055054,185.130219 1545.921143,185.548752
	C1544.396240,185.752396 1542.212769,187.307358 1541.814453,188.681595
	C1538.385864,200.511139 1535.283936,212.435684 1532.115845,224.340195
	C1531.331909,227.285721 1532.805786,228.392502 1535.556152,228.172562
	C1539.557739,227.852600 1541.835571,225.586899 1542.819702,221.748184
	C1544.352905,215.766739 1546.002686,209.815186 1547.965332,202.500854
	C1551.920288,211.176819 1555.186401,218.341904 1558.764404,226.191010
	C1561.125854,224.168320 1562.603027,222.903061 1564.590942,221.135071
M1525.158081,208.740692
	C1526.004028,205.188339 1526.996948,201.663391 1527.665649,198.078018
	C1529.113525,190.314545 1525.678223,185.776901 1517.722534,185.489731
	C1509.424072,185.190216 1501.097168,185.163406 1492.800293,185.477875
	C1484.297607,185.800125 1478.341553,190.233368 1475.647827,198.344498
	C1473.820190,203.847992 1472.305664,209.496948 1471.195923,215.187134
	C1469.757812,222.561264 1473.440552,227.380707 1480.910156,227.665527
	C1489.701904,228.000778 1498.530518,227.984894 1507.319214,227.588394
	C1515.035767,227.240234 1520.296631,222.986374 1522.945801,215.672104
	C1523.680908,213.642593 1524.302124,211.571854 1525.158081,208.740692
M1418.097168,197.694778
	C1416.702271,203.004349 1415.151123,208.278778 1413.946655,213.631195
	C1411.844849,222.972015 1415.178833,227.399292 1424.588135,227.652573
	C1433.074707,227.881012 1441.570801,227.888184 1450.061035,227.810623
	C1457.743530,227.740448 1459.128418,225.807159 1457.489746,217.639481
	C1447.927124,217.639481 1438.294189,217.558807 1428.663818,217.675949
	C1424.317017,217.728821 1422.925781,215.983658 1424.172485,211.835739
	C1425.225342,208.332443 1426.212402,204.797256 1426.974854,201.222076
	C1427.857422,197.083847 1430.315063,195.427887 1434.428589,195.483231
	C1442.587280,195.592957 1450.749023,195.601837 1458.908325,195.529449
	C1465.935913,195.467117 1467.867554,192.892990 1466.389038,185.680161
	C1455.136353,185.680161 1443.826294,185.242569 1432.572021,185.843826
	C1425.790161,186.206116 1421.090454,190.695587 1418.097168,197.694778
M1379.698486,192.292465
	C1379.131714,195.217010 1378.694092,198.174362 1377.961792,201.056824
	C1377.239014,203.900848 1378.109985,205.091965 1381.065796,205.043732
	C1386.367920,204.957230 1391.680054,205.170471 1396.970337,204.905777
	C1398.328613,204.837814 1400.448364,203.721970 1400.804199,202.627716
	C1402.575073,197.181671 1403.873779,191.582108 1405.571167,185.156906
	C1398.830811,185.156906 1392.911377,184.969818 1387.010986,185.223831
	C1383.192383,185.388245 1380.426147,187.352493 1379.698486,192.292465
M775.905273,79.411194
	C773.377808,82.262482 770.536316,84.906075 768.455078,88.052528
	C767.411560,89.630127 767.752747,92.123672 767.467651,94.202972
	C769.921387,94.211723 773.251892,95.251534 774.671570,94.044273
	C779.818909,89.667290 784.502808,84.690323 788.936646,79.571617
	C789.924683,78.430977 789.926392,74.643608 789.075256,74.092239
	C787.518188,73.083488 784.645691,72.839783 782.941833,73.624161
	C780.476318,74.759132 778.562500,77.092651 775.905273,79.411194
M1063.437622,92.955376
	C1067.684570,88.543777 1072.124634,84.293770 1076.045288,79.609108
	C1077.048706,78.410156 1077.153809,74.629356 1076.370972,74.147392
	C1074.752808,73.151039 1071.382324,72.592270 1070.275024,73.581024
	C1064.738770,78.524216 1059.444336,83.804657 1054.598145,89.426239
	C1052.195557,92.213181 1054.235474,95.534447 1057.997192,95.378052
	C1059.652344,95.309242 1061.260132,94.103081 1063.437622,92.955376
z"/>
<path fill="#202020" opacity="1.000000" stroke="none"
	d="
M1.500000,1.000000
	C2.005381,102.020927 2.010762,203.041855 2.008070,304.531372
	C1.666664,303.502991 1.042405,302.006165 1.041608,300.508972
	C0.995026,212.985794 1.000000,125.462593 1.000000,37.939384
	C1.000000,25.626257 1.000000,13.313128 1.500000,1.000000
z"/>
<path fill="#FAEE39" opacity="1.000000" stroke="none"
	d="
M301.362885,187.617310
	C289.613647,132.751495 302.379791,84.835663 343.001740,46.600449
	C385.860352,6.259997 437.185730,-4.768391 492.664001,14.534427
	C547.003418,33.440983 579.717285,73.196144 589.016052,130.077713
	C601.742615,207.927567 550.509644,280.876709 473.635590,296.577515
	C396.256927,312.381378 320.720520,264.754456 301.362885,187.617310
M505.828979,100.673470
	C506.224426,100.812119 506.619904,100.950760 507.921173,101.343208
	C514.907043,101.387787 521.893616,101.385834 528.878418,101.499680
	C531.697693,101.545639 533.638855,100.758347 534.418030,97.725204
	C536.154297,90.966270 538.048828,84.247635 539.915344,77.522675
	C540.789429,74.373184 539.468628,73.293961 536.413879,73.325958
	C529.762146,73.395645 523.096252,73.087555 516.465088,73.455879
	C514.839844,73.546158 512.375732,75.359795 511.921539,76.869736
	C509.629547,84.488747 507.874573,92.269279 505.828979,100.673470
M414.053101,185.723495
	C414.991364,182.358078 415.758789,178.932800 416.911407,175.642487
	C418.334808,171.579285 417.521332,169.779175 412.823578,170.006439
	C407.009277,170.287766 401.163208,170.207947 395.343231,169.975037
	C391.467682,169.819962 389.555450,171.412170 388.701813,175.121017
	C387.396576,180.792114 385.515381,186.337723 384.361725,192.034424
	C383.461365,196.480362 381.123016,198.205902 376.751007,198.078964
	C371.094971,197.914719 365.431122,198.012894 359.770660,198.007828
	C356.376648,198.004791 354.304749,199.339447 353.453339,202.958267
	C351.892151,209.593704 349.856262,216.116394 348.113800,222.711349
	C347.842377,223.738647 348.075836,224.899353 348.075836,226.523239
	C353.049835,226.523239 357.684418,226.553864 362.318512,226.517654
	C377.690308,226.397537 374.498352,228.966675 378.646881,213.631363
	C383.501068,195.687531 378.967743,198.933090 397.875519,198.691666
	C412.682526,198.502594 410.235718,200.717514 414.053101,185.723495
M478.416168,204.622849
	C476.789154,210.551895 475.201141,216.492035 473.517883,222.405060
	C472.738037,225.144577 473.479675,226.591019 476.487640,226.580429
	C483.472260,226.555817 490.461578,226.691635 497.437500,226.441849
	C498.731201,226.395523 500.767151,225.087082 501.108734,223.953720
	C503.636597,215.566299 505.822266,207.075729 508.363037,197.704529
	C498.777740,197.704529 489.917938,197.704529 480.353485,197.704529
	C482.653076,189.465408 484.633362,182.122101 486.769501,174.824402
	C487.795105,171.320740 486.803589,169.922379 483.056915,170.028748
	C476.742188,170.208038 470.411621,169.917297 464.103760,170.192032
	C462.432190,170.264847 459.710785,171.349503 459.357117,172.533066
	C456.857483,180.897934 454.849365,189.409683 452.488525,198.640640
	C460.286835,198.640640 467.385834,198.818558 474.470154,198.573059
	C478.633484,198.428757 480.054260,199.834335 478.416168,204.622849
M440.845428,74.638855
	C443.839050,88.687798 456.404999,96.372688 469.664276,92.263435
	C482.198944,88.378754 488.609406,74.919273 483.787598,62.609901
	C479.784454,52.390575 468.755676,46.680038 457.739624,49.122681
	C446.630371,51.585976 440.025635,61.198139 440.845428,74.638855
M419.534424,101.244659
	C416.706604,101.248856 413.859558,101.061417 411.059601,101.342880
	C409.774078,101.472115 407.746155,102.275818 407.476166,103.192360
	C404.958252,111.739471 402.749390,120.377625 400.492004,128.835815
	C401.662720,129.358673 401.964020,129.610657 402.264984,129.610229
	C407.586090,129.602692 412.908447,129.628647 418.227936,129.519623
	C429.862823,129.281204 428.092255,131.018921 431.159546,119.241913
	C432.646515,113.532722 434.148041,107.827324 435.872284,101.244690
	C430.059784,101.244690 425.288025,101.244690 419.534424,101.244659
M504.055145,106.718796
	C504.347046,105.155617 504.638916,103.592438 505.070801,101.279320
	C496.362701,101.279320 488.385162,101.164169 480.417786,101.396980
	C479.146210,101.434135 477.138794,102.799812 476.798370,103.945541
	C474.355164,112.168625 472.254883,120.493614 469.880707,129.405762
	C478.895264,129.405762 487.194183,129.575241 495.471130,129.225098
	C496.729218,129.171875 498.480103,126.897797 498.982513,125.324936
	C500.854584,119.464012 502.301361,113.467232 504.055145,106.718796
M441.739014,104.227783
	C439.875610,111.107666 438.002777,117.985016 436.153656,124.868736
	C435.468475,127.419395 435.386993,129.506653 439.062408,129.454407
	C446.028931,129.355408 453.000305,129.512207 459.963287,129.325073
	C461.201508,129.291809 463.227509,128.349930 463.502472,127.418175
	C465.967926,119.063812 468.122803,110.617783 470.589050,101.373886
	C461.315948,101.373886 452.923706,101.313477 444.535309,101.464943
	C443.672424,101.480522 442.832397,102.761459 441.739014,104.227783
M460.083130,142.471664
	C460.491821,140.462234 460.900482,138.452805 461.459595,135.703659
	C452.586823,135.703659 444.490753,135.604950 436.402863,135.816666
	C435.270447,135.846329 433.492828,137.197952 433.175934,138.278442
	C430.764954,146.499161 428.643005,154.804657 426.230286,163.835190
	C434.743591,163.835190 442.346497,163.686264 449.939148,163.900620
	C453.510895,164.001465 454.995209,162.378281 455.752563,159.194748
	C457.019531,153.869232 458.495453,148.593430 460.083130,142.471664
M395.922852,129.333618
	C391.606934,129.296539 387.290161,129.185822 382.975311,129.236938
	C372.359344,129.362656 372.352570,129.390701 369.586395,139.846954
	C368.121552,145.384048 366.686462,150.929016 365.026764,157.278305
	C374.172668,157.278305 382.418030,157.460251 390.638092,157.086090
	C391.899994,157.028656 393.615662,154.591599 394.143890,152.942047
	C396.216888,146.468567 397.790771,139.836914 399.773682,133.332199
	C400.686005,130.339401 399.615326,129.359787 395.922852,129.333618
z"/>
<path fill="#F7ED39" opacity="1.000000" stroke="none"
	d="
M1225.401855,90.550613
	C1226.833984,93.225098 1228.174438,95.535820 1229.307495,97.944183
	C1231.066895,101.684319 1233.077759,101.983177 1236.093506,99.086845
	C1243.902466,91.587006 1251.965576,84.350594 1259.727539,76.803650
	C1263.192139,73.434990 1266.968384,71.866745 1271.813477,72.045715
	C1278.572510,72.295395 1285.347778,72.108627 1293.679810,72.108627
	C1291.528931,74.468651 1290.473755,75.808647 1289.238281,76.954292
	C1275.191406,89.980774 1261.207764,103.078247 1246.988403,115.914337
	C1243.247437,119.291313 1242.504150,122.141769 1245.155273,126.627197
	C1251.499512,137.360931 1257.391357,148.362015 1264.151367,160.484467
	C1264.971802,157.831726 1265.517334,156.258698 1265.945312,154.654327
	C1270.321167,138.248489 1274.678223,121.837585 1279.040283,105.428078
	C1285.117676,82.564926 1298.842896,72.093773 1322.433594,72.148193
	C1340.424316,72.189705 1358.415405,72.119049 1376.406128,72.032883
	C1394.802856,71.944786 1403.690918,83.150528 1399.138794,101.085411
	C1393.732910,122.383476 1388.029785,143.606369 1382.691650,164.921036
	C1381.555786,169.456390 1379.507324,171.362518 1374.747681,170.871704
	C1370.791870,170.463776 1366.757080,170.701187 1362.762573,170.823990
	C1359.532104,170.923309 1358.570679,169.587830 1359.410522,166.538956
	C1361.399658,159.317307 1363.158569,152.028763 1365.301147,144.854080
	C1366.596436,140.516769 1365.125366,139.046814 1360.860718,139.062668
	C1339.870361,139.140671 1318.879639,139.150894 1297.889282,139.094223
	C1294.330200,139.084610 1292.358765,140.496521 1291.505493,144.001297
	C1289.734009,151.277985 1287.617554,158.471649 1285.896362,165.759323
	C1285.018066,169.477783 1283.119629,170.945374 1279.258545,170.886032
	C1267.933105,170.711945 1256.601440,170.726181 1245.275757,170.899429
	C1241.627319,170.955231 1239.376709,169.582993 1237.698364,166.430954
	C1233.863159,159.228989 1229.844116,152.124649 1225.879028,144.992203
	C1222.563599,139.028076 1222.138428,139.005127 1216.952026,143.847076
	C1209.037109,151.236206 1200.997192,158.494141 1193.189209,165.994019
	C1189.599731,169.441849 1185.716309,171.135986 1180.655884,170.907166
	C1173.755249,170.595123 1166.829956,170.829330 1159.915161,170.829330
	C1159.484253,170.191452 1159.053345,169.553558 1158.622559,168.915680
	C1160.158081,167.991882 1161.899902,167.294052 1163.197754,166.109619
	C1177.470093,153.082977 1191.678467,139.985947 1205.893311,126.896172
	C1212.105103,121.175980 1212.244507,119.822441 1208.046875,112.385223
	C1201.662354,101.073051 1195.344116,89.723312 1189.033081,78.369873
	C1188.171509,76.819969 1187.513794,75.156822 1186.440430,72.858162
	C1188.511841,72.536293 1189.900879,72.148216 1191.293823,72.133591
	C1197.622925,72.067070 1203.956055,72.221535 1210.281738,72.059975
	C1213.677856,71.973236 1215.980713,73.175812 1217.557617,76.199501
	C1220.020996,80.923424 1222.655396,85.558121 1225.401855,90.550613
M1302.926514,101.581879
	C1302.088135,104.456741 1301.182617,107.314056 1300.426025,110.210297
	C1299.084106,115.346649 1299.666260,116.132637 1304.919312,116.134567
	C1324.399902,116.141747 1343.880737,116.145317 1363.361084,116.070198
	C1372.680054,116.034264 1374.067261,114.781418 1375.854370,105.517830
	C1376.012085,104.700806 1376.116333,103.873634 1376.258423,103.053459
	C1377.482544,95.990761 1376.824463,95.147095 1369.692017,95.127602
	C1350.378052,95.074814 1331.063354,95.151352 1311.750732,94.976227
	C1307.261963,94.935532 1304.399414,96.502441 1302.926514,101.581879
z"/>
<path fill="#F4EC39" opacity="1.000000" stroke="none"
	d="
M729.933350,76.009804
	C737.969666,82.727745 740.091553,91.466454 734.331543,101.291779
	C730.615356,107.630920 724.518250,112.574280 719.198303,118.463997
	C730.088074,121.997551 732.885925,130.993896 730.465210,143.194443
	C744.369385,130.840195 759.113953,128.653961 774.691223,138.158493
	C775.269470,137.637741 775.627930,137.471024 775.718506,137.210983
	C781.030640,121.958443 776.154846,115.424011 760.173096,116.846161
	C755.577454,117.255119 751.118103,119.076744 746.521362,119.644936
	C744.416687,119.905098 742.130676,118.698776 739.926880,118.157516
	C740.737000,115.711281 740.803162,112.385513 742.481567,110.965782
	C751.398926,103.422791 775.674377,102.341827 785.507080,108.606400
	C791.017395,112.117111 793.644897,117.426392 792.309509,123.577377
	C789.203979,137.881577 785.671265,152.112061 781.622986,166.174133
	C780.937134,168.556534 776.943665,171.155334 774.252686,171.428070
	C772.035339,171.652817 769.483887,168.581070 767.125732,167.000519
	C761.544617,168.585480 755.180542,171.474777 748.616455,172.039597
	C733.291992,173.358215 728.444336,168.700058 726.617798,152.994659
	C726.319641,153.036636 725.884705,152.967010 725.743225,153.138916
	C715.068848,166.102600 700.989929,171.114487 684.612061,170.909149
	C674.615845,170.783813 664.616943,170.864243 654.620667,170.741394
	C648.026428,170.660385 646.378906,168.776901 648.030823,162.420807
	C655.234375,134.703796 662.631348,107.037117 669.915161,79.340851
	C671.200439,74.453506 674.270691,72.005264 679.275146,72.056313
	C692.601562,72.192253 705.935791,72.166756 719.247986,72.688728
	C722.743042,72.825760 726.169067,74.721848 729.933350,76.009804
M667.973083,157.805588
	C677.616089,157.672226 687.266846,157.734344 696.899963,157.352188
	C707.141785,156.945877 713.901489,151.073837 716.297852,141.101624
	C718.660889,131.268173 714.931458,125.834534 704.844543,125.379082
	C695.218201,124.944405 685.557556,124.973335 675.924866,125.249229
	C674.215271,125.298203 671.566528,127.237663 671.061707,128.842239
	C668.470825,137.076981 666.432922,145.485992 664.215881,153.837845
	C663.562744,156.298004 664.396301,157.724335 667.973083,157.805588
M717.936584,105.361160
	C718.816223,103.952179 719.857056,102.617798 720.549561,101.122162
	C725.083008,91.330643 721.190308,85.041298 710.458374,84.884384
	C702.632019,84.769951 694.800842,84.725037 686.977173,84.896835
	C685.368896,84.932152 682.684387,85.722565 682.363892,86.748451
	C679.856750,94.774063 677.805420,102.942078 675.458618,111.640236
	C677.884094,111.870087 679.325623,112.132088 680.765320,112.122185
	C688.425720,112.069572 696.085938,111.860703 703.745728,111.881325
	C709.245972,111.896126 713.837769,110.085350 717.936584,105.361160
M745.416992,145.827316
	C743.912720,148.333206 741.883057,150.674713 741.034851,153.385880
	C739.932495,156.909576 741.441040,159.873520 745.012634,161.485992
	C751.935913,164.611664 763.282532,162.612473 768.838745,157.273376
	C774.168701,152.151520 772.968872,145.706802 766.050171,143.193909
	C759.081116,140.662720 752.355530,141.545425 745.416992,145.827316
z"/>
<path fill="#F8ED39" opacity="1.000000" stroke="none"
	d="
M1411.975830,75.004791
	C1415.213745,71.463211 1433.619629,70.916733 1436.476807,73.982269
	C1437.485840,75.064705 1438.224487,76.411728 1439.016724,77.681534
	C1450.304688,95.777893 1461.578857,113.882988 1472.863770,131.981277
	C1473.729736,133.370071 1474.651978,134.723801 1476.124634,136.975281
	C1476.916992,134.907501 1477.518555,133.683929 1477.861084,132.391708
	C1482.555054,114.683670 1487.218018,96.967415 1491.877197,79.250175
	C1493.665283,72.450363 1494.458496,71.899391 1501.588623,72.211418
	C1504.081299,72.320496 1506.585938,72.257500 1509.081787,72.172676
	C1516.138062,71.932892 1516.595215,72.524826 1514.718384,79.520020
	C1509.755005,98.017372 1504.788452,116.513885 1499.859497,135.020386
	C1497.159180,145.158691 1494.428345,155.291031 1491.925049,165.478531
	C1490.969360,169.368286 1488.980225,170.896637 1484.924805,170.915451
	C1469.327759,170.987762 1468.169189,173.997070 1458.801025,156.492996
	C1449.932495,139.922592 1439.282715,124.305161 1429.394409,108.282158
	C1428.895142,107.473122 1428.187622,106.792572 1427.088623,105.459900
	C1426.382202,107.369659 1425.773071,108.676613 1425.410278,110.048714
	C1420.729248,127.759506 1416.075562,145.477570 1411.431885,163.198227
	C1409.477173,170.657791 1409.143188,170.911423 1401.653809,170.748581
	C1398.822510,170.687027 1395.987793,170.736130 1393.155396,170.776703
	C1386.961182,170.865433 1386.625732,170.510971 1388.153687,164.727661
	C1394.236938,141.702667 1400.346924,118.684761 1406.450806,95.665230
	C1408.243652,88.904465 1410.049438,82.147171 1411.975830,75.004791
z"/>
<path fill="#F7ED39" opacity="1.000000" stroke="none"
	d="
M1591.765625,109.171814
	C1593.078369,106.896645 1594.314819,104.900749 1594.913086,102.729065
	C1597.124023,94.702995 1599.372314,86.671944 1601.112671,78.537132
	C1602.200073,73.454376 1604.732056,71.550949 1609.822144,72.071884
	C1613.450195,72.443192 1617.150024,72.255257 1620.810913,72.123169
	C1624.407959,71.993378 1625.676025,73.365852 1624.719727,76.948410
	C1616.730713,106.872665 1608.857300,136.828308 1600.667114,166.697159
	C1600.198242,168.407242 1597.389893,170.333847 1595.451538,170.607300
	C1591.202393,171.206711 1586.803345,170.638336 1582.482544,170.866714
	C1578.209106,171.092575 1577.153687,169.284286 1578.212769,165.423843
	C1580.636108,156.591614 1582.985596,147.738907 1585.314575,138.881256
	C1585.765991,137.164307 1585.987061,135.386749 1586.423950,133.051254
	C1584.259644,132.889999 1582.660156,132.670502 1581.060181,132.667175
	C1565.562256,132.634857 1550.062622,132.756744 1534.567261,132.555588
	C1530.297974,132.500183 1528.203613,134.042328 1527.215698,138.164093
	C1525.004028,147.392136 1522.376343,156.519928 1520.120605,165.738129
	C1519.218140,169.425980 1517.349365,171.108292 1513.465454,170.867188
	C1509.647095,170.630157 1505.803589,170.806747 1501.971069,170.793411
	C1496.673340,170.774979 1496.066895,170.052032 1497.422363,164.936676
	C1502.070923,147.391098 1506.776245,129.860596 1511.436401,112.318100
	C1514.386475,101.212845 1517.510742,90.146988 1520.124634,78.962440
	C1521.308960,73.894951 1523.437256,71.402298 1528.942749,72.076027
	C1532.554077,72.517960 1536.269531,72.268761 1539.929199,72.113983
	C1543.737183,71.952927 1544.569702,73.643829 1543.635742,77.045441
	C1541.210693,85.876907 1538.901611,94.740181 1536.541138,103.589378
	C1535.012939,109.318314 1535.308838,109.808510 1540.954712,109.774193
	C1557.768799,109.672005 1574.582642,109.509399 1591.765625,109.171814
z"/>
<path fill="#F4EC39" opacity="1.000000" stroke="none"
	d="
M1116.454834,133.456543
	C1119.792603,135.055176 1122.747559,136.532761 1126.355103,138.336761
	C1128.221680,133.111557 1130.334839,127.814705 1127.634033,122.273323
	C1125.054565,116.981064 1119.744873,116.262756 1114.687866,116.702034
	C1109.093140,117.188019 1103.576416,118.589859 1098.031006,119.621201
	C1095.274170,120.133934 1092.276855,121.381218 1090.687378,117.746628
	C1089.132324,114.190529 1091.270386,111.693222 1093.991821,110.341759
	C1107.427979,103.669296 1121.338379,101.988701 1135.415894,108.112617
	C1141.647827,110.823669 1144.016235,116.480515 1143.284180,122.961777
	C1142.614624,128.889481 1141.266479,134.765488 1139.864502,140.579224
	C1138.108887,147.860718 1135.996826,155.056366 1134.029663,162.286606
	C1133.723755,163.410492 1133.432739,164.544678 1133.026611,165.633850
	C1131.621704,169.402588 1129.006714,172.351776 1124.918579,171.607544
	C1122.479492,171.163498 1120.439941,168.524384 1117.832886,166.583221
	C1113.788208,168.069611 1108.701294,170.768738 1103.299683,171.769043
	C1086.840698,174.817017 1080.840942,170.281479 1077.251465,153.162903
	C1076.699219,152.601044 1076.146973,152.039200 1075.594727,151.477341
	C1074.817749,153.038879 1074.317749,154.836319 1073.220337,156.124969
	C1063.549072,167.481735 1051.509155,173.487518 1036.290527,172.117096
	C1022.685913,170.892014 1014.839233,162.694595 1014.209900,148.998062
	C1013.091675,124.661011 1037.600586,101.911354 1061.848022,104.779457
	C1077.450439,106.624992 1086.276611,118.719086 1083.289551,134.162613
	C1082.757935,136.911102 1082.217773,139.657913 1081.341431,144.148392
	C1091.854858,133.766495 1103.150269,130.518951 1116.454834,133.456543
M1056.536255,156.208817
	C1065.062500,150.193802 1069.210571,141.824127 1069.470459,131.534866
	C1069.721558,121.596161 1063.769287,116.001411 1053.829102,116.529869
	C1040.967407,117.213646 1028.744995,130.032516 1028.097656,143.516998
	C1027.517456,155.603943 1035.190308,162.363159 1047.122192,159.973740
	C1050.158936,159.365616 1052.997925,157.770020 1056.536255,156.208817
M1123.013428,152.070938
	C1123.769043,147.970505 1121.817627,145.313553 1118.273315,143.767075
	C1110.882324,140.542206 1103.618042,141.082977 1096.897949,145.462753
	C1090.534424,149.610123 1090.078369,158.807343 1095.851074,161.567825
	C1104.537964,165.721909 1117.837402,161.415741 1123.013428,152.070938
z"/>
<path fill="#F5EC39" opacity="1.000000" stroke="none"
	d="
M973.535461,113.629776
	C979.755310,108.692871 986.321289,104.719925 994.661072,104.536423
	C1008.422668,104.233627 1017.180420,112.905106 1015.117920,126.491043
	C1013.451965,137.465469 1010.139404,148.190887 1007.530823,159.020416
	C1007.024719,161.121735 1006.738342,163.379379 1005.733521,165.229828
	C1004.595703,167.325195 1003.111328,169.755402 1001.133423,170.722778
	C999.196960,171.669891 995.793945,171.851227 994.250549,170.715820
	C992.822876,169.665558 992.173889,166.245697 992.622375,164.182510
	C994.600403,155.083633 997.098877,146.097916 999.408997,137.071228
	C999.615112,136.265701 999.840149,135.464508 1000.025696,134.654251
	C1003.169861,120.919327 996.273743,114.312134 982.736450,118.086304
	C974.488525,120.385803 969.232361,125.780350 966.898315,133.903824
	C964.096069,143.656372 961.536194,153.478546 958.872620,163.270920
	C957.824341,167.124893 956.194641,170.484528 951.869751,171.577591
	C946.883362,172.837845 943.822693,170.319641 944.865356,165.264084
	C946.308838,158.264435 948.219116,151.357513 950.039001,144.439713
	C955.711121,122.878799 961.436157,101.331795 967.137817,79.778618
	C968.146912,75.964104 969.480225,72.418564 973.851746,71.246284
	C979.429382,69.750595 982.476074,72.349754 981.162231,77.954147
	C978.808350,87.994949 976.107300,97.954308 973.558167,107.949455
	C973.229187,109.239166 972.941223,110.539345 972.462891,112.466095
	C972.706177,113.274948 973.120850,113.452362 973.535461,113.629776
z"/>
<path fill="#F5EC39" opacity="1.000000" stroke="none"
	d="
M883.917725,118.504616
	C875.664856,121.516640 871.227844,127.412399 869.075867,135.252121
	C866.697937,143.915207 864.423218,152.606628 862.041138,161.268555
	C861.470215,163.344635 860.899902,165.484955 859.896484,167.364655
	C857.841309,171.214615 854.525085,172.841385 850.267944,171.380035
	C845.739746,169.825653 846.941406,166.287643 847.803040,163.028091
	C855.157776,135.202759 862.514954,107.378059 869.934448,79.569977
	C870.440308,77.674019 871.148315,75.686485 872.296326,74.137230
	C874.786560,70.776772 878.674988,69.685562 881.964844,71.814552
	C883.500366,72.808273 884.112915,76.804382 883.606873,79.100975
	C881.532166,88.516220 878.856018,97.798538 876.423889,107.135689
	C875.813477,109.479263 875.287476,111.844826 874.506897,115.099838
	C877.902466,112.577797 880.163940,109.980309 882.987793,108.995377
	C888.532776,107.061432 894.368896,104.962509 900.123657,104.844879
	C911.008118,104.622368 918.345642,112.378052 917.986023,123.290634
	C917.785828,129.362473 916.249939,135.439514 914.868469,141.410706
	C913.144470,148.862335 911.092285,156.247101 908.895691,163.574982
	C908.209351,165.864670 907.098450,168.762558 905.281189,169.792038
	C902.994507,171.087463 899.482788,171.608307 897.093201,170.770477
	C895.828857,170.327133 894.929871,166.101990 895.403198,163.917236
	C897.444763,154.494064 900.075684,145.199341 902.453674,135.848083
	C906.308655,120.689026 899.507874,114.152412 883.917725,118.504616
z"/>
<path fill="#F4EC3A" opacity="1.000000" stroke="none"
	d="
M806.684082,153.966553
	C812.316833,160.828491 819.575562,162.612686 827.950684,159.030823
	C831.437012,157.539810 834.450806,154.915787 837.964172,153.527649
	C839.760559,152.817932 843.310974,152.939804 844.054810,154.043259
	C845.097839,155.590591 845.146362,158.982819 844.094604,160.583450
	C834.912903,174.556808 807.222351,176.450287 795.989868,164.055359
	C790.633728,158.144913 789.875977,151.025894 790.816101,143.475250
	C793.782959,119.647743 815.960449,102.052742 839.566101,104.874779
	C845.349243,105.566154 850.651245,107.309479 854.143311,112.429970
	C856.868408,116.425850 856.576477,120.064125 853.296631,122.640602
	C849.744568,125.431053 846.506470,124.705429 843.636658,121.503212
	C838.852112,116.164375 832.941772,115.300606 826.313843,116.984215
	C810.395691,121.027687 800.639160,139.020020 806.684082,153.966553
z"/>
<path fill="#F3EC3A" opacity="1.000000" stroke="none"
	d="
M1564.335571,221.386444
	C1562.603027,222.903061 1561.125854,224.168320 1558.764404,226.191010
	C1555.186401,218.341904 1551.920288,211.176819 1547.965332,202.500854
	C1546.002686,209.815186 1544.352905,215.766739 1542.819702,221.748184
	C1541.835571,225.586899 1539.557739,227.852600 1535.556152,228.172562
	C1532.805786,228.392502 1531.331909,227.285721 1532.115845,224.340195
	C1535.283936,212.435684 1538.385864,200.511139 1541.814453,188.681595
	C1542.212769,187.307358 1544.396240,185.752396 1545.921143,185.548752
	C1549.055054,185.130219 1552.674438,184.306152 1554.390747,188.633575
	C1556.354004,193.584076 1558.576416,198.432480 1560.717896,203.311310
	C1561.372192,204.801910 1562.131104,206.246490 1563.201416,208.452576
	C1570.168945,201.823624 1576.745483,195.560822 1583.328857,189.305313
	C1587.986938,184.879456 1589.713867,184.463150 1597.022339,186.266373
	C1596.127197,189.731049 1595.246826,193.207703 1594.329590,196.674530
	C1592.115234,205.043442 1589.913208,213.415802 1587.649780,221.771515
	C1585.716431,228.909256 1584.359375,229.522949 1576.565796,226.663025
	C1578.192627,220.207397 1579.835571,213.688354 1581.478516,207.169312
	C1581.121338,206.911087 1580.764282,206.652863 1580.407104,206.394638
	C1575.135132,211.308121 1569.863037,216.221588 1564.335571,221.386444
z"/>
<path fill="#F0EA3A" opacity="1.000000" stroke="none"
	d="
M1525.066772,209.130341
	C1524.302124,211.571854 1523.680908,213.642593 1522.945801,215.672104
	C1520.296631,222.986374 1515.035767,227.240234 1507.319214,227.588394
	C1498.530518,227.984894 1489.701904,228.000778 1480.910156,227.665527
	C1473.440552,227.380707 1469.757812,222.561264 1471.195923,215.187134
	C1472.305664,209.496948 1473.820190,203.847992 1475.647827,198.344498
	C1478.341553,190.233368 1484.297607,185.800125 1492.800293,185.477875
	C1501.097168,185.163406 1509.424072,185.190216 1517.722534,185.489731
	C1525.678223,185.776901 1529.113525,190.314545 1527.665649,198.078018
	C1526.996948,201.663391 1526.004028,205.188339 1525.066772,209.130341
M1482.112671,210.572693
	C1480.521484,217.169815 1480.912720,217.664169 1487.848511,217.689758
	C1490.845459,217.700821 1493.843262,217.704803 1496.839478,217.649048
	C1515.224121,217.306915 1511.883057,220.842957 1517.082275,201.511276
	C1517.212036,201.029099 1517.308594,200.537674 1517.447876,200.058502
	C1518.326294,197.037781 1517.092529,195.586029 1514.051758,195.561295
	C1509.722900,195.526062 1505.393555,195.520416 1501.064697,195.538208
	C1483.388916,195.610840 1487.115601,193.671997 1482.112671,210.572693
z"/>
<path fill="#EEE93B" opacity="1.000000" stroke="none"
	d="
M1418.224365,197.334793
	C1421.090454,190.695587 1425.790161,186.206116 1432.572021,185.843826
	C1443.826294,185.242569 1455.136353,185.680161 1466.389038,185.680161
	C1467.867554,192.892990 1465.935913,195.467117 1458.908325,195.529449
	C1450.749023,195.601837 1442.587280,195.592957 1434.428589,195.483231
	C1430.315063,195.427887 1427.857422,197.083847 1426.974854,201.222076
	C1426.212402,204.797256 1425.225342,208.332443 1424.172485,211.835739
	C1422.925781,215.983658 1424.317017,217.728821 1428.663818,217.675949
	C1438.294189,217.558807 1447.927124,217.639481 1457.489746,217.639481
	C1459.128418,225.807159 1457.743530,227.740448 1450.061035,227.810623
	C1441.570801,227.888184 1433.074707,227.881012 1424.588135,227.652573
	C1415.178833,227.399292 1411.844849,222.972015 1413.946655,213.631195
	C1415.151123,208.278778 1416.702271,203.004349 1418.224365,197.334793
z"/>
<path fill="#F3EC3A" opacity="1.000000" stroke="none"
	d="
M1379.773438,191.900513
	C1380.426147,187.352493 1383.192383,185.388245 1387.010986,185.223831
	C1392.911377,184.969818 1398.830811,185.156906 1405.571167,185.156906
	C1403.873779,191.582108 1402.575073,197.181671 1400.804199,202.627716
	C1400.448364,203.721970 1398.328613,204.837814 1396.970337,204.905777
	C1391.680054,205.170471 1386.367920,204.957230 1381.065796,205.043732
	C1378.109985,205.091965 1377.239014,203.900848 1377.961792,201.056824
	C1378.694092,198.174362 1379.131714,195.217010 1379.773438,191.900513
z"/>
<path fill="#F0EA3A" opacity="1.000000" stroke="none"
	d="
M776.159302,79.163025
	C778.562500,77.092651 780.476318,74.759132 782.941833,73.624161
	C784.645691,72.839783 787.518188,73.083488 789.075256,74.092239
	C789.926392,74.643608 789.924683,78.430977 788.936646,79.571617
	C784.502808,84.690323 779.818909,89.667290 774.671570,94.044273
	C773.251892,95.251534 769.921387,94.211723 767.467651,94.202972
	C767.752747,92.123672 767.411560,89.630127 768.455078,88.052528
	C770.536316,84.906075 773.377808,82.262482 776.159302,79.163025
z"/>
<path fill="#F0EA39" opacity="1.000000" stroke="none"
	d="
M1063.163574,93.184341
	C1061.260132,94.103081 1059.652344,95.309242 1057.997192,95.378052
	C1054.235474,95.534447 1052.195557,92.213181 1054.598145,89.426239
	C1059.444336,83.804657 1064.738770,78.524216 1070.275024,73.581024
	C1071.382324,72.592270 1074.752808,73.151039 1076.370972,74.147392
	C1077.153809,74.629356 1077.048706,78.410156 1076.045288,79.609108
	C1072.124634,84.293770 1067.684570,88.543777 1063.163574,93.184341
z"/>
<path fill="#2A2821" opacity="1.000000" stroke="none"
	d="
M413.968628,186.124405
	C410.235718,200.717514 412.682526,198.502594 397.875519,198.691666
	C378.967743,198.933090 383.501068,195.687531 378.646881,213.631363
	C374.498352,228.966675 377.690308,226.397537 362.318512,226.517654
	C357.684418,226.553864 353.049835,226.523239 348.075836,226.523239
	C348.075836,224.899353 347.842377,223.738647 348.113800,222.711349
	C349.856262,216.116394 351.892151,209.593704 353.453339,202.958267
	C354.304749,199.339447 356.376648,198.004791 359.770660,198.007828
	C365.431122,198.012894 371.094971,197.914719 376.751007,198.078964
	C381.123016,198.205902 383.461365,196.480362 384.361725,192.034424
	C385.515381,186.337723 387.396576,180.792114 388.701813,175.121017
	C389.555450,171.412170 391.467682,169.819962 395.343231,169.975037
	C401.163208,170.207947 407.009277,170.287766 412.823578,170.006439
	C417.521332,169.779175 418.334808,171.579285 416.911407,175.642487
	C415.758789,178.932800 414.991364,182.358078 413.968628,186.124405
z"/>
<path fill="#2A2821" opacity="1.000000" stroke="none"
	d="
M478.559998,204.219757
	C480.054260,199.834335 478.633484,198.428757 474.470154,198.573059
	C467.385834,198.818558 460.286835,198.640640 452.488525,198.640640
	C454.849365,189.409683 456.857483,180.897934 459.357117,172.533066
	C459.710785,171.349503 462.432190,170.264847 464.103760,170.192032
	C470.411621,169.917297 476.742188,170.208038 483.056915,170.028748
	C486.803589,169.922379 487.795105,171.320740 486.769501,174.824402
	C484.633362,182.122101 482.653076,189.465408 480.353485,197.704529
	C489.917938,197.704529 498.777740,197.704529 508.363037,197.704529
	C505.822266,207.075729 503.636597,215.566299 501.108734,223.953720
	C500.767151,225.087082 498.731201,226.395523 497.437500,226.441849
	C490.461578,226.691635 483.472260,226.555817 476.487640,226.580429
	C473.479675,226.591019 472.738037,225.144577 473.517883,222.405060
	C475.201141,216.492035 476.789154,210.551895 478.559998,204.219757
z"/>
<path fill="#262320" opacity="1.000000" stroke="none"
	d="
M440.801941,74.237534
	C440.025635,61.198139 446.630371,51.585976 457.739624,49.122681
	C468.755676,46.680038 479.784454,52.390575 483.787598,62.609901
	C488.609406,74.919273 482.198944,88.378754 469.664276,92.263435
	C456.404999,96.372688 443.839050,88.687798 440.801941,74.237534
z"/>
<path fill="#2A2821" opacity="1.000000" stroke="none"
	d="
M420.025330,101.244675
	C425.288025,101.244690 430.059784,101.244690 435.872284,101.244690
	C434.148041,107.827324 432.646515,113.532722 431.159546,119.241913
	C428.092255,131.018921 429.862823,129.281204 418.227936,129.519623
	C412.908447,129.628647 407.586090,129.602692 402.264984,129.610229
	C401.964020,129.610657 401.662720,129.358673 400.492004,128.835815
	C402.749390,120.377625 404.958252,111.739471 407.476166,103.192360
	C407.746155,102.275818 409.774078,101.472115 411.059601,101.342880
	C413.859558,101.061417 416.706604,101.248856 420.025330,101.244675
z"/>
<path fill="#292721" opacity="1.000000" stroke="none"
	d="
M503.981445,107.120117
	C502.301361,113.467232 500.854584,119.464012 498.982513,125.324936
	C498.480103,126.897797 496.729218,129.171875 495.471130,129.225098
	C487.194183,129.575241 478.895264,129.405762 469.880707,129.405762
	C472.254883,120.493614 474.355164,112.168625 476.798370,103.945541
	C477.138794,102.799812 479.146210,101.434135 480.417786,101.396980
	C488.385162,101.164169 496.362701,101.279320 505.070801,101.279320
	C504.638916,103.592438 504.347046,105.155617 503.981445,107.120117
z"/>
<path fill="#282621" opacity="1.000000" stroke="none"
	d="
M441.860382,103.841515
	C442.832397,102.761459 443.672424,101.480522 444.535309,101.464943
	C452.923706,101.313477 461.315948,101.373886 470.589050,101.373886
	C468.122803,110.617783 465.967926,119.063812 463.502472,127.418175
	C463.227509,128.349930 461.201508,129.291809 459.963287,129.325073
	C453.000305,129.512207 446.028931,129.355408 439.062408,129.454407
	C435.386993,129.506653 435.468475,127.419395 436.153656,124.868736
	C438.002777,117.985016 439.875610,111.107666 441.860382,103.841515
z"/>
<path fill="#282521" opacity="1.000000" stroke="none"
	d="
M459.983276,142.884186
	C458.495453,148.593430 457.019531,153.869232 455.752563,159.194748
	C454.995209,162.378281 453.510895,164.001465 449.939148,163.900620
	C442.346497,163.686264 434.743591,163.835190 426.230286,163.835190
	C428.643005,154.804657 430.764954,146.499161 433.175934,138.278442
	C433.492828,137.197952 435.270447,135.846329 436.402863,135.816666
	C444.490753,135.604950 452.586823,135.703659 461.459595,135.703659
	C460.900482,138.452805 460.491821,140.462234 459.983276,142.884186
z"/>
<path fill="#262420" opacity="1.000000" stroke="none"
	d="
M396.374207,129.372238
	C399.615326,129.359787 400.686005,130.339401 399.773682,133.332199
	C397.790771,139.836914 396.216888,146.468567 394.143890,152.942047
	C393.615662,154.591599 391.899994,157.028656 390.638092,157.086090
	C382.418030,157.460251 374.172668,157.278305 365.026764,157.278305
	C366.686462,150.929016 368.121552,145.384048 369.586395,139.846954
	C372.352570,129.390701 372.359344,129.362656 382.975311,129.236938
	C387.290161,129.185822 391.606934,129.296539 396.374207,129.372238
z"/>
<path fill="#282521" opacity="1.000000" stroke="none"
	d="
M505.931152,99.993134
	C507.874573,92.269279 509.629547,84.488747 511.921539,76.869736
	C512.375732,75.359795 514.839844,73.546158 516.465088,73.455879
	C523.096252,73.087555 529.762146,73.395645 536.413879,73.325958
	C539.468628,73.293961 540.789429,74.373184 539.915344,77.522675
	C538.048828,84.247635 536.154297,90.966270 534.418030,97.725204
	C533.638855,100.758347 531.697693,101.545639 528.878418,101.499680
	C521.893616,101.385834 514.907043,101.387787 507.311401,101.010986
	C506.444824,100.450218 506.187988,100.221672 505.931152,99.993134
z"/>
<path fill="#2A2821" opacity="1.000000" stroke="none"
	d="
M505.880066,100.333298
	C506.187988,100.221672 506.444824,100.450218 506.858490,100.884079
	C506.619904,100.950760 506.224426,100.812119 505.880066,100.333298
z"/>
<path fill="#088B48" opacity="1.000000" stroke="none"
	d="
M1303.036377,101.206810
	C1304.399414,96.502441 1307.261963,94.935532 1311.750732,94.976227
	C1331.063354,95.151352 1350.378052,95.074814 1369.692017,95.127602
	C1376.824463,95.147095 1377.482544,95.990761 1376.258423,103.053459
	C1376.116333,103.873634 1376.012085,104.700806 1375.854370,105.517830
	C1374.067261,114.781418 1372.680054,116.034264 1363.361084,116.070198
	C1343.880737,116.145317 1324.399902,116.141747 1304.919312,116.134567
	C1299.666260,116.132637 1299.084106,115.346649 1300.426025,110.210297
	C1301.182617,107.314056 1302.088135,104.456741 1303.036377,101.206810
z"/>
<path fill="#078B48" opacity="1.000000" stroke="none"
	d="
M667.526428,157.796127
	C664.396301,157.724335 663.562744,156.298004 664.215881,153.837845
	C666.432922,145.485992 668.470825,137.076981 671.061707,128.842239
	C671.566528,127.237663 674.215271,125.298203 675.924866,125.249229
	C685.557556,124.973335 695.218201,124.944405 704.844543,125.379082
	C714.931458,125.834534 718.660889,131.268173 716.297852,141.101624
	C713.901489,151.073837 707.141785,156.945877 696.899963,157.352188
	C687.266846,157.734344 677.616089,157.672226 667.526428,157.796127
z"/>
<path fill="#068B48" opacity="1.000000" stroke="none"
	d="
M717.701477,105.641747
	C713.837769,110.085350 709.245972,111.896126 703.745728,111.881325
	C696.085938,111.860703 688.425720,112.069572 680.765320,112.122185
	C679.325623,112.132088 677.884094,111.870087 675.458618,111.640236
	C677.805420,102.942078 679.856750,94.774063 682.363892,86.748451
	C682.684387,85.722565 685.368896,84.932152 686.977173,84.896835
	C694.800842,84.725037 702.632019,84.769951 710.458374,84.884384
	C721.190308,85.041298 725.083008,91.330643 720.549561,101.122162
	C719.857056,102.617798 718.816223,103.952179 717.701477,105.641747
z"/>
<path fill="#098C48" opacity="1.000000" stroke="none"
	d="
M745.711731,145.589874
	C752.355530,141.545425 759.081116,140.662720 766.050171,143.193909
	C772.968872,145.706802 774.168701,152.151520 768.838745,157.273376
	C763.282532,162.612473 751.935913,164.611664 745.012634,161.485992
	C741.441040,159.873520 739.932495,156.909576 741.034851,153.385880
	C741.883057,150.674713 743.912720,148.333206 745.711731,145.589874
z"/>
<path fill="#068B48" opacity="1.000000" stroke="none"
	d="
M1056.232056,156.418488
	C1052.997925,157.770020 1050.158936,159.365616 1047.122192,159.973740
	C1035.190308,162.363159 1027.517456,155.603943 1028.097656,143.516998
	C1028.744995,130.032516 1040.967407,117.213646 1053.829102,116.529869
	C1063.769287,116.001411 1069.721558,121.596161 1069.470459,131.534866
	C1069.210571,141.824127 1065.062500,150.193802 1056.232056,156.418488
z"/>
<path fill="#098C48" opacity="1.000000" stroke="none"
	d="
M1122.921631,152.451767
	C1117.837402,161.415741 1104.537964,165.721909 1095.851074,161.567825
	C1090.078369,158.807343 1090.534424,149.610123 1096.897949,145.462753
	C1103.618042,141.082977 1110.882324,140.542206 1118.273315,143.767075
	C1121.817627,145.313553 1123.769043,147.970505 1122.921631,152.451767
z"/>
<path fill="#028948" opacity="1.000000" stroke="none"
	d="
M973.303223,113.373154
	C973.120850,113.452362 972.706177,113.274948 972.444580,112.854500
	C972.755371,112.779823 972.913208,112.948174 973.303223,113.373154
z"/>
<path fill="#098C48" opacity="1.000000" stroke="none"
	d="
M1482.207520,210.183380
	C1487.115601,193.671997 1483.388916,195.610840 1501.064697,195.538208
	C1505.393555,195.520416 1509.722900,195.526062 1514.051758,195.561295
	C1517.092529,195.586029 1518.326294,197.037781 1517.447876,200.058502
	C1517.308594,200.537674 1517.212036,201.029099 1517.082275,201.511276
	C1511.883057,220.842957 1515.224121,217.306915 1496.839478,217.649048
	C1493.843262,217.704803 1490.845459,217.700821 1487.848511,217.689758
	C1480.912720,217.664169 1480.521484,217.169815 1482.207520,210.183380
z"/>
</svg>
