<?xml version="1.0" encoding="UTF-8" standalone="no"?>
<svg
   xmlns:dc="http://purl.org/dc/elements/1.1/"
   xmlns:cc="http://creativecommons.org/ns#"
   xmlns:rdf="http://www.w3.org/1999/02/22-rdf-syntax-ns#"
   xmlns:svg="http://www.w3.org/2000/svg"
   xmlns="http://www.w3.org/2000/svg"
   viewBox="0 0 2466.6667 756"
   height="95"
   width="700"
   xml:space="preserve"
   id="svg2"
   version="1.1"><metadata
     id="metadata8"><rdf:RDF><cc:Work
         rdf:about=""><dc:format>image/svg+xml</dc:format><dc:type
           rdf:resource="http://purl.org/dc/dcmitype/StillImage" /></cc:Work></rdf:RDF></metadata><defs
     id="defs6"><clipPath
       id="clipPath18"
       clipPathUnits="userSpaceOnUse"><path
         id="path16"
         d="M 0,567 H 1850 V 0 H 0 Z" /></clipPath></defs><g
     transform="matrix(1.3333333,0,0,-1.3333333,0,756)"
     id="g10"><g
       id="g12"><g
         clip-path="url(#clipPath18)"
         id="g14"><g
           transform="translate(925.1211,0.1152)"
           id="g20"><path
             id="path22"
             style="fill:#298e52;fill-opacity:1;fill-rule:nonzero;stroke:none"
             d="m 0,0 c -306.766,0 -613.532,0.011 -920.298,-0.115 -4.127,-0.002 -4.825,0.915 -4.822,4.896 0.122,185.739 0.123,371.476 -10e-4,557.214 -0.003,4.001 0.727,4.886 4.832,4.885 613.366,-0.119 1226.732,-0.119 1840.098,0.005 4.322,10e-4 5.073,-1.013 5.07,-5.15 -0.121,-185.738 -0.117,-371.475 -0.016,-557.214 0.002,-3.688 -0.757,-4.62 -4.564,-4.619 C 613.532,0.008 306.767,0 0,0" /></g><g
           transform="translate(284.4893,283.353)"
           id="g24"><path
             id="path26"
             style="fill:#fcef47;fill-opacity:1;fill-rule:nonzero;stroke:none"
             d="M 0,0 C -0.405,77.724 62.953,141.375 141.051,141.702 219.429,142.031 282.863,79.256 283.438,0.797 284.01,-77.215 220.622,-141.106 142.348,-141.411 63.703,-141.717 0.411,-78.842 0,0" /></g><g
           transform="translate(1114.7109,266.1133)"
           id="g28"><path
             id="path30"
             style="fill:#fcef47;fill-opacity:1;fill-rule:nonzero;stroke:none"
             d="m 0,0 c 16.445,15.207 31.577,29.489 47.09,43.345 4.006,3.577 4.998,6.02 2.024,10.955 -7.206,11.961 -13.621,24.397 -20.472,36.575 -1.676,2.979 -1.847,4.35 2.299,4.211 6.825,-0.228 13.666,-0.208 20.492,0.009 2.803,0.089 4.145,-1.071 5.362,-3.376 3.88,-7.355 8.11,-14.529 11.892,-21.932 1.728,-3.385 2.871,-4.016 5.883,-1.076 8.225,8.025 16.826,15.663 25.166,23.574 2.075,1.967 4.194,2.865 7.084,2.799 7.603,-0.174 15.211,-0.059 23.146,-0.059 -0.508,-2.108 -1.865,-2.867 -2.886,-3.815 C 112.682,77.827 98.31,64.415 83.78,51.174 81.326,48.937 81.148,47.294 82.76,44.473 89.179,33.229 95.341,21.84 102.187,9.44 c 2.856,10.648 5.439,20.212 7.986,29.786 2.392,8.992 4.612,18.032 7.146,26.984 5.165,18.244 19.271,28.811 38.189,28.815 18.663,0.003 37.34,-0.453 55.983,0.133 17.071,0.536 24.343,-12.833 21.279,-25.865 -5.248,-22.314 -11.555,-44.379 -17.328,-66.572 -0.514,-1.98 -1.364,-2.771 -3.38,-2.742 -5.332,0.08 -10.666,0.108 -15.996,-0.006 -2.735,-0.06 -2.962,1.027 -2.311,3.354 2.057,7.361 3.781,14.818 5.938,22.148 1.042,3.543 0.811,5.084 -3.512,5.049 -20.827,-0.168 -41.657,-0.131 -62.485,-0.015 -3.066,0.017 -4.37,-1.028 -5.079,-3.989 C 126.762,18.766 124.446,11.122 122.594,3.367 121.96,0.71 120.766,-0.07 118.163,-0.047 106.167,0.062 94.17,0.073 82.175,-0.056 79.589,-0.084 78.318,1 77.171,3.117 72.893,11.016 68.354,18.774 64.136,26.704 62.533,29.719 61.474,30.642 58.534,27.815 49.77,19.389 40.652,11.33 31.809,2.983 29.604,0.902 27.42,-0.151 24.317,-0.067 16.713,0.138 9.1,0 0,0" /></g><g
           transform="translate(1421.6885,298.874)"
           id="g32"><path
             id="path34"
             style="fill:#fcef47;fill-opacity:1;fill-rule:nonzero;stroke:none"
             d="m 0,0 c 5.083,19.145 10.274,38.178 15.099,57.303 1.012,4.017 2.639,5.453 6.716,5.043 3.793,-0.381 7.672,-0.306 11.483,-0.019 3.994,0.3 5.061,-0.678 3.915,-4.851 C 31.229,35.688 25.524,13.822 19.726,-8.017 c -1.833,-6.905 -3.854,-13.77 -5.394,-20.74 -0.732,-3.318 -2.277,-4.222 -5.465,-4.066 -5.649,0.278 -12.065,-1.459 -16.768,0.69 -4.744,2.169 -6.445,8.924 -9.415,13.702 -10.005,16.091 -19.88,32.263 -29.928,48.604 -2.051,-1.291 -1.892,-3.318 -2.312,-4.881 -4.791,-17.809 -9.553,-35.626 -14.084,-53.503 -0.89,-3.516 -2.314,-4.92 -6.027,-4.632 -4.472,0.346 -8.997,0.236 -13.486,0.03 -3.068,-0.14 -3.536,0.728 -2.752,3.661 7.852,29.37 15.569,58.777 23.29,88.183 0.575,2.19 1.49,3.389 4.076,3.29 5.323,-0.202 10.668,-0.234 15.988,0.009 3.008,0.136 3.973,-1.801 5.208,-3.789 C -25.922,40.171 -14.485,21.811 -3.025,3.465 -2.267,2.25 -1.884,0.667 0,0" /></g><g
           transform="translate(1499.8545,302.873)"
           id="g36"><path
             id="path38"
             style="fill:#fcef47;fill-opacity:1;fill-rule:nonzero;stroke:none"
             d="m 0,0 c -7.994,0 -15.992,-0.144 -23.979,0.072 -3.114,0.085 -4.319,-1.008 -5.047,-3.972 -2.377,-9.674 -5.21,-19.237 -7.56,-28.918 -0.727,-2.991 -1.898,-4.165 -5.014,-4.003 -4.65,0.24 -9.327,0.188 -13.984,0.018 -2.955,-0.107 -3.875,0.839 -3.092,3.766 7.851,29.361 15.675,58.728 23.395,88.122 0.625,2.38 1.603,3.288 4.043,3.219 4.992,-0.141 9.994,-0.154 14.986,-0.001 3.087,0.095 3.599,-0.887 2.775,-3.816 -2.697,-9.591 -4.956,-19.307 -7.704,-28.883 -0.916,-3.188 0.048,-3.581 2.853,-3.566 16.154,0.089 32.31,0.137 48.463,-0.038 3.169,-0.034 4.281,1.127 4.989,3.999 2.344,9.513 5.076,18.931 7.371,28.455 0.733,3.035 2.081,4.023 5.107,3.872 4.652,-0.232 9.326,-0.152 13.985,-0.029 2.727,0.072 3.995,-0.42 3.133,-3.634 -7.881,-29.354 -15.692,-58.727 -23.375,-88.134 -0.71,-2.716 -1.971,-3.402 -4.499,-3.327 -4.659,0.138 -9.334,0.215 -13.986,-0.018 -3.526,-0.178 -4.312,0.923 -3.361,4.307 2.695,9.592 5.027,19.285 7.722,28.877 0.803,2.862 0.376,3.759 -2.742,3.691 C 16.323,-0.119 8.16,-0.001 0,0" /></g><g
           transform="translate(698.9756,284.9092)"
           id="g40"><path
             id="path42"
             style="fill:#fcef47;fill-opacity:1;fill-rule:nonzero;stroke:none"
             d="m 0,0 c -10.861,-14.822 -25.968,-19.623 -43.649,-18.862 -8.805,0.379 -17.64,0.004 -26.46,0.089 -6.251,0.06 -7.69,1.978 -6.094,8.058 6.867,26.17 13.753,52.335 20.697,78.484 1.921,7.231 3.732,8.611 11.243,8.601 11.981,-0.015 23.976,0.147 35.939,-0.376 C 3.187,75.492 10.846,67.56 9.857,57.764 8.979,49.062 5.091,41.916 -2.267,36.922 -4.591,35.344 -7.079,34.007 -9.807,32.371 -3.232,30.114 2.033,26.803 3.6,19.533 4.443,15.616 3.345,11.941 2.997,8.164 2.663,6.275 3.002,4.342 2.626,2.451 2.204,1.148 1.464,0.185 0,0" /></g><g
           transform="translate(934.876,319.4189)"
           id="g44"><path
             id="path46"
             style="fill:#fcef47;fill-opacity:1;fill-rule:nonzero;stroke:none"
             d="m 0,0 c 5.411,4.866 10.351,8.533 16.756,9.88 17.28,3.632 28.43,-7.036 24.695,-24.315 -2.419,-11.189 -5.596,-22.215 -8.501,-33.297 -0.804,-3.069 -2.625,-5.334 -5.832,-6.27 -5.37,-1.566 -8.546,1.263 -7.207,6.666 2.397,9.669 5.055,19.273 7.442,28.943 C 30.497,-5.651 24.149,0.75 11.404,-2.25 2.815,-4.271 -2.45,-9.955 -4.883,-18.159 c -2.831,-9.547 -5.313,-19.2 -7.811,-28.842 -0.962,-3.709 -2.84,-6.347 -6.719,-7.177 -5.024,-1.076 -7.847,1.558 -6.582,6.559 3.541,14.003 7.302,27.95 10.993,41.914 3.648,13.804 7.343,27.595 10.96,41.407 1.014,3.869 2.938,6.653 7.234,7.14 5.165,0.586 7.283,-1.52 6.026,-6.634 C 6.524,25.246 3.56,14.351 0.714,3.426 0.513,2.652 0.385,1.859 0,0" /></g><g
           transform="translate(840.6924,318.6719)"
           id="g48"><path
             id="path50"
             style="fill:#fcef47;fill-opacity:1;fill-rule:nonzero;stroke:none"
             d="m 0,0 c 5.437,5.506 10.411,9.156 16.874,10.544 17.334,3.724 28.613,-6.711 25.065,-23.98 -2.335,-11.365 -5.729,-22.515 -8.699,-33.748 -0.82,-3.104 -2.736,-5.278 -5.935,-6.143 -5.17,-1.399 -8.284,1.293 -7.045,6.495 2.269,9.523 4.937,18.952 7.288,28.457 1.245,5.034 2.62,10.51 -1.838,14.518 -4.485,4.034 -10.212,3.701 -15.622,1.953 -7.712,-2.491 -12.498,-8.083 -14.71,-15.719 -2.539,-8.766 -4.694,-17.643 -7.099,-26.45 -0.563,-2.065 -1.117,-4.262 -2.267,-6.01 -2.154,-3.272 -5.533,-4.307 -9.201,-3.085 -4.08,1.357 -2.919,4.837 -2.228,7.611 2.449,9.824 5.15,19.584 7.751,29.369 4.645,17.486 9.307,34.968 13.917,52.462 1.125,4.266 3.319,7.222 8.112,7.398 4.593,0.17 6.49,-1.96 5.343,-6.492 C 6.696,25.29 3.521,13.441 0,0" /></g><g
           transform="translate(1039.9902,290.8843)"
           id="g52"><path
             id="path54"
             style="fill:#fcef47;fill-opacity:1;fill-rule:nonzero;stroke:none"
             d="m 0,0 c 6.445,7.232 14.141,11.837 24.141,12.208 7.273,0.27 13.914,-0.934 19.305,-6.391 0.406,0.621 0.757,0.986 0.91,1.42 5.325,15.033 0.078,21.633 -15.836,20.082 -4.019,-0.392 -7.791,-1.608 -11.63,-2.685 -2.702,-0.758 -5.98,-1.865 -7.418,1.586 -1.35,3.238 0.791,5.743 3.453,7.496 2.804,1.846 5.98,2.821 9.244,3.588 7.195,1.691 14.445,2.475 21.775,1.197 C 57.263,36.18 62.5,29.206 59.729,15.936 57.219,3.921 53.646,-7.872 50.456,-19.74 c -0.333,-1.239 -1.055,-2.492 -1.922,-3.443 -2.201,-2.415 -5.039,-3.168 -8.19,-2.306 -3.133,0.857 -2.96,3.533 -2.971,6.782 C 31.011,-23.832 24.136,-26.209 16.486,-26.38 2.855,-26.686 -2.826,-21.041 -3.008,-6.884 -4.288,-3.592 -3.149,-1.357 0,0" /></g><g
           transform="translate(698.9756,284.9092)"
           id="g56"><path
             id="path58"
             style="fill:#fcef47;fill-opacity:1;fill-rule:nonzero;stroke:none"
             d="m 0,0 c 0.396,1.137 0.793,2.273 1.189,3.41 0.89,1.294 1.213,3.02 2.856,3.74 11.181,12.641 28.099,14.688 42.081,5.092 0.246,0.156 0.646,0.263 0.717,0.477 5.312,16.344 0.52,22.236 -16.565,20.472 -4.014,-0.414 -7.742,-1.853 -11.595,-2.855 -2.187,-0.569 -4.988,-1.24 -6.278,1.371 -1.312,2.656 -0.32,5.322 2.042,7.08 1.71,1.272 3.644,2.416 5.656,3.083 9.137,3.03 18.467,4.169 28.042,2.331 C 59.338,42.053 64.984,34.912 62.7,23.842 60.085,11.165 56.363,-1.285 53.113,-13.831 c -0.124,-0.479 -0.3,-0.955 -0.526,-1.394 -1.824,-3.531 -4.795,-4.99 -8.661,-4.513 -3.719,0.459 -4.027,3.355 -3.94,6.914 -7.558,-5.937 -15.673,-8.243 -24.682,-7.331 C 3.794,-18.99 -0.761,-13.583 0.038,-1.995 0.083,-1.334 0.016,-0.665 0,0" /></g><g
           transform="translate(1039.9902,290.8843)"
           id="g60"><path
             id="path62"
             style="fill:#fcef47;fill-opacity:1;fill-rule:nonzero;stroke:none"
             d="m 0,0 c -1.002,-2.295 -2.005,-4.589 -3.008,-6.884 -2.684,-0.429 -3.36,-3.028 -4.861,-4.666 -8.893,-9.707 -19.606,-15.341 -32.996,-14.706 -15.913,0.755 -24.147,10.135 -23.215,26.045 1.364,23.285 25.719,43.003 47.852,38.741 C -2.548,35.896 5.085,24.854 2.607,11.092 1.936,7.359 0.88,3.695 0,0" /></g><g
           transform="translate(789.1758,264.6104)"
           id="g64"><path
             id="path66"
             style="fill:#fcef47;fill-opacity:1;fill-rule:nonzero;stroke:none"
             d="m 0,0 c -22.141,-0.592 -32.388,11.938 -28.208,30.977 5.116,23.306 27.929,38.532 50.062,33.402 4.536,-1.051 8.403,-3.169 10.9,-7.257 2.1,-3.437 1.957,-6.871 -1.298,-9.351 -3.166,-2.414 -6.369,-2.174 -9.199,1.152 -5.348,6.285 -12.192,6.086 -19.202,3.732 -11.842,-3.976 -20.058,-17.678 -18.267,-30.079 1.274,-8.812 9.981,-13.421 20.098,-10.688 3.774,1.019 6.961,3.09 10.082,5.322 2.617,1.872 5.797,3.177 8.105,0.458 2.507,-2.953 0.485,-6.016 -1.885,-8.32 C 14.528,2.871 6.372,0.052 0,0" /></g><g
           transform="translate(1537.8643,251.5703)"
           id="g68"><path
             id="path70"
             style="fill:#fcef47;fill-opacity:1;fill-rule:nonzero;stroke:none"
             d="m 0,0 c -3.368,-12.694 -6.627,-25.378 -10.138,-37.992 -1.276,-4.584 -5.402,-2.468 -8.055,-2.264 -3.563,0.276 -1.092,3.057 -0.746,4.542 1.43,6.131 3.14,12.195 4.562,17.58 -5.53,-5.13 -11.603,-10.524 -17.394,-16.208 -5.344,-5.245 -5.202,-5.378 -8.271,1.682 -2.297,5.284 -4.619,10.557 -7.408,16.925 -2.076,-7.766 -3.809,-14.302 -5.575,-20.828 -0.889,-3.284 -6.717,-5.571 -9.428,-3.752 -1.137,0.761 -0.627,1.825 -0.402,2.675 3.146,11.874 6.395,23.721 9.503,35.605 0.532,2.033 1.614,2.855 3.506,2.442 2.785,-0.609 6.418,1.871 8.214,-2.465 2.792,-6.742 5.788,-13.399 8.642,-19.962 6.171,5.833 12.332,11.477 18.283,17.333 C -8.867,1.056 -8.961,1.15 0,0" /></g><g
           transform="translate(1449.082,251.9766)"
           id="g72"><path
             id="path74"
             style="fill:#fcef47;fill-opacity:1;fill-rule:nonzero;stroke:none"
             d="m 0,0 c 4.164,0 8.336,0.167 12.49,-0.038 6.681,-0.33 10.609,-4.715 9.416,-11.283 -1.151,-6.345 -2.741,-12.71 -5.047,-18.718 C 14.26,-36.815 8.562,-40.45 1.34,-40.77 c -7.98,-0.352 -15.991,-0.266 -23.98,-0.045 -8.167,0.225 -11.839,5.447 -9.817,13.495 1.092,4.35 2.225,8.691 3.408,13.017 2.505,9.158 9.086,14.231 18.556,14.33 C -6.996,0.064 -3.498,0.034 0,0.034 Z" /></g><g
           transform="translate(1395.376,252.0059)"
           id="g76"><path
             id="path78"
             style="fill:#fbef47;fill-opacity:1;fill-rule:nonzero;stroke:none"
             d="m 0,0 c 4.992,0 9.985,-0.034 14.978,0.018 1.88,0.018 2.541,-0.333 2.112,-2.559 -1.361,-7.052 -1.317,-7.152 -8.562,-7.155 -7.822,-0.002 -15.645,-0.111 -23.464,0.042 -3.795,0.075 -5.84,-1.366 -6.594,-5.162 -0.774,-3.9 -1.824,-7.764 -3.054,-11.546 -1.179,-3.628 0.03,-4.853 3.659,-4.807 8.486,0.107 16.975,0.105 25.46,-0.041 1.442,-0.024 4.489,1.291 4.038,-1.677 -0.436,-2.866 0.503,-7.699 -4.049,-7.877 -10.297,-0.402 -20.643,-0.397 -30.933,0.141 -6.264,0.328 -9.534,5.458 -8.191,11.743 1.213,5.674 2.646,11.324 4.391,16.856 2.166,6.865 8.939,11.741 16.231,11.979 4.655,0.152 9.319,0.029 13.978,0.029 z" /></g><g
           transform="translate(1353.0674,252.0293)"
           id="g80"><path
             id="path82"
             style="fill:#fcef47;fill-opacity:1;fill-rule:nonzero;stroke:none"
             d="m 0,0 c -1.512,-5.817 -2.907,-11.086 -4.24,-16.369 -0.483,-1.915 -1.559,-2.651 -3.562,-2.612 -5.488,0.104 -10.98,0.11 -16.468,0.002 -2.59,-0.051 -3.312,0.93 -2.412,3.278 0.06,0.155 0.127,0.307 0.176,0.467 1.51,4.886 0.992,12.467 4.588,14.18 C -15.597,1.958 -7.691,-0.274 0,0" /></g><g
           transform="translate(1018.418,338.6255)"
           id="g84"><path
             id="path86"
             style="fill:#fbef46;fill-opacity:1;fill-rule:nonzero;stroke:none"
             d="m 0,0 c -4.136,0.049 -6.04,2.956 -3.731,6.101 4.224,5.753 9.205,10.937 14.972,15.221 1.857,1.379 4.131,1.388 6.038,-0.194 1.723,-1.43 1.587,-3.386 0.495,-4.975 C 13.605,10.091 8.264,5.121 2.51,0.602 1.807,0.05 0.604,0.132 0,0" /></g><g
           transform="translate(741.6445,338.623)"
           id="g88"><path
             id="path90"
             style="fill:#fbef47;fill-opacity:1;fill-rule:nonzero;stroke:none"
             d="m 0,0 c -4.248,0.058 -6.068,2.895 -3.767,6.109 4.157,5.805 9.241,10.878 14.933,15.23 1.822,1.393 4.138,1.407 6.019,-0.225 1.888,-1.638 1.486,-3.795 0.272,-5.428 C 13.281,10.068 8.192,5.287 2.84,0.812 2.037,0.141 0.649,0.171 0,0" /></g><g
           transform="translate(703.0205,292.0596)"
           id="g92"><path
             id="path94"
             style="fill:#66ac50;fill-opacity:1;fill-rule:nonzero;stroke:none"
             d="m 0,0 c -0.52,-1.577 -1.318,-2.94 -2.855,-3.741 0.14,1.76 0.603,3.398 1.807,4.754 C -0.699,0.675 -0.35,0.338 0,0" /></g><g
           transform="translate(444.3965,340.7603)"
           id="g96"><path
             id="path98"
             style="fill:#373636;fill-opacity:1;fill-rule:nonzero;stroke:none"
             d="m 0,0 c -12.099,-0.044 -21.524,9.198 -21.681,21.257 -0.157,12.19 9.436,21.954 21.563,21.948 C 12.071,43.199 21.689,33.542 21.636,21.365 21.583,9.504 12.003,0.044 0,0" /></g><g
           transform="translate(340.3008,239.0234)"
           id="g100"><path
             id="path102"
             style="fill:#383636;fill-opacity:1;fill-rule:nonzero;stroke:none"
             d="m 0,0 c 6.991,1.746 14.099,0.616 21.142,0.687 4.001,0.04 6.26,0.573 7.008,5.247 0.963,6.02 3.178,11.832 4.615,17.79 0.68,2.819 1.736,4.184 4.981,4.039 6.484,-0.291 12.992,-0.143 19.489,-0.06 2.637,0.033 4.006,-0.098 2.91,-3.556 C 57.995,17.366 56.378,10.41 54.686,3.491 54.064,0.949 52.786,0.105 50.16,0.179 43.501,0.366 36.831,0.155 30.169,0.292 28.129,0.334 26.656,-0.083 25.818,-2.016 19.096,-2.451 12.368,-2.247 5.642,-2.17 3.538,-2.146 1.279,-2.277 0,0" /></g><g
           transform="translate(461.1592,240.1641)"
           id="g104"><path
             id="path106"
             style="fill:#383636;fill-opacity:1;fill-rule:nonzero;stroke:none"
             d="m 0,0 c 4.476,-0.114 8.951,-0.272 13.428,-0.332 4.306,-0.057 8.614,-0.013 13.509,-0.013 -2.352,-8.694 -4.644,-16.925 -6.769,-25.197 -0.486,-1.893 -1.519,-2.27 -3.195,-2.261 -7.144,0.038 -14.289,0.079 -21.433,-0.015 -2.83,-0.038 -2.861,1.24 -2.235,3.43 1.859,6.511 3.507,13.081 5.392,19.584 0.862,2.974 0.345,4.12 -3.08,3.98 -6.469,-0.264 -12.957,-0.11 -19.436,-0.052 -1.643,0.015 -4.343,-0.574 -2.317,2.708 6.752,0.493 13.511,0.213 20.268,0.218 C -3.663,2.052 -1.594,1.721 0,0" /></g><g
           transform="translate(485.127,332.894)"
           id="g108"><path
             id="path110"
             style="fill:#373636;fill-opacity:1;fill-rule:nonzero;stroke:none"
             d="m 0,0 c 2.069,7.821 4.182,15.631 6.185,23.469 0.629,2.466 1.447,3.89 4.561,3.734 6.627,-0.331 13.283,-0.206 19.923,-0.053 2.908,0.067 3.794,-0.644 2.889,-3.644 C 31.555,16.868 29.639,10.188 28.109,3.43 27.492,0.704 26.39,-0.028 23.788,0.021 15.819,0.171 7.847,0.106 -0.125,0.125 Z" /></g><g
           transform="translate(431.5254,306.0039)"
           id="g112"><path
             id="path114"
             style="fill:#373636;fill-opacity:1;fill-rule:nonzero;stroke:none"
             d="m 0,0 c -3.651,0 -7.309,0.12 -10.953,-0.043 -2.327,-0.104 -2.969,0.757 -2.393,2.881 1.987,7.329 4.034,14.642 5.887,22.004 0.487,1.935 1.568,2.246 3.216,2.24 7.303,-0.029 14.606,-0.055 21.909,0.015 1.955,0.019 2.61,-0.396 2.007,-2.515 C 17.551,17.123 15.496,9.641 13.66,2.109 13.155,0.039 12.011,-0.014 10.457,-0.006 6.972,0.012 3.485,0 0,0" /></g><g
           transform="translate(485.002,333.0186)"
           id="g116"><path
             id="path118"
             style="fill:#373636;fill-opacity:1;fill-rule:nonzero;stroke:none"
             d="m 0,0 c -1.272,-8.522 -4.374,-16.589 -6.227,-24.968 -0.329,-1.49 -1.271,-2.089 -2.876,-2.076 -8.132,0.066 -16.265,0.03 -24.869,0.03 2.287,8.517 4.531,16.607 6.595,24.743 0.538,2.12 1.738,2.383 3.575,2.355 7.975,-0.124 15.95,-0.147 23.927,-0.208 C 0.125,-0.125 0,0 0,0" /></g><g
           transform="translate(409.0352,272.8496)"
           id="g120"><path
             id="path122"
             style="fill:#373636;fill-opacity:1;fill-rule:nonzero;stroke:none"
             d="m 0,0 c 2.222,8.458 4.273,16.113 6.224,23.793 0.603,2.375 1.635,3.481 4.379,3.381 6.64,-0.241 13.296,-0.143 19.944,-0.046 2.604,0.039 4.044,-0.073 2.979,-3.49 C 31.415,16.858 29.74,9.939 28.007,3.047 27.494,1.009 26.719,-0.083 24.362,-0.047 16.403,0.076 8.442,0 0,0" /></g><g
           transform="translate(384.397,305.6562)"
           id="g124"><path
             id="path126"
             style="fill:#373636;fill-opacity:1;fill-rule:nonzero;stroke:none"
             d="m 0,0 c -2.132,-7.621 -4.38,-15.212 -6.337,-22.877 -0.735,-2.882 -1.991,-3.942 -5.057,-3.818 -6.462,0.261 -12.943,0.142 -19.415,0.049 -2.579,-0.038 -4.001,-0.009 -2.906,3.454 2.138,6.759 3.665,13.71 5.514,20.564 0.364,1.348 0.447,3.159 2.551,3.089 8.583,-0.282 17.195,0.749 25.754,-0.573 z" /></g><g
           transform="translate(384.5015,305.5444)"
           id="g128"><path
             id="path130"
             style="fill:#373636;fill-opacity:1;fill-rule:nonzero;stroke:none"
             d="m 0,0 c 0.832,8.894 4.244,17.16 6.255,25.767 0.333,1.422 1.175,1.778 2.499,1.773 7.474,-0.03 14.947,-0.045 22.42,0.009 2.007,0.014 2.599,-0.565 2.018,-2.638 C 31.143,17.6 29.201,10.257 27.334,2.897 26.738,0.548 25.221,0.429 23.239,0.423 15.452,0.399 7.665,0.241 -0.113,0.122 -0.104,0.112 0,0 0,0" /></g><g
           transform="translate(340.3008,239.0234)"
           id="g132"><path
             id="path134"
             style="fill:#383636;fill-opacity:1;fill-rule:nonzero;stroke:none"
             d="m 0,0 c 6.923,-0.002 13.846,0.023 20.769,-0.026 1.897,-0.013 4.103,0.53 5.049,-1.99 -1.83,-7.351 -3.663,-14.702 -5.489,-22.054 -0.459,-1.845 -1.481,-2.653 -3.522,-2.62 -7.129,0.113 -14.261,0.057 -21.392,0.034 -1.708,-0.006 -3.099,0.211 -2.384,2.458 C -4.423,-16.196 -3.086,-7.847 0,0" /></g><g
           transform="translate(461.1592,240.1641)"
           id="g136"><path
             id="path138"
             style="fill:#383636;fill-opacity:1;fill-rule:nonzero;stroke:none"
             d="m 0,0 c -7.365,-0.047 -14.73,-0.1 -22.096,-0.138 -1.66,-0.008 -3.352,-0.036 -4.04,1.97 1.916,7.502 3.876,14.992 5.716,22.513 0.46,1.88 1.57,2.218 3.243,2.207 7.134,-0.048 14.269,-0.083 21.402,0.01 C 7.029,26.6 7.085,25.41 6.435,23.168 4.202,15.471 2.132,7.727 0,0" /></g><g
           transform="translate(1285.9307,318.7622)"
           id="g140"><path
             id="path142"
             style="fill:#298e52;fill-opacity:1;fill-rule:nonzero;stroke:none"
             d="m 0,0 c -10.47,0.001 -20.94,0.089 -31.408,-0.051 -3.189,-0.043 -4.082,0.807 -3.221,4.025 5.301,19.818 3.823,16.039 20.494,16.229 15.951,0.181 31.907,0.052 47.861,0.031 5.655,-0.007 6.43,-0.978 5.424,-6.503 C 36.648,-0.001 36.648,-0.001 22.934,-0.001 15.289,-0.001 7.645,-0.001 0,0" /></g><g
           transform="translate(663.4619,309.9751)"
           id="g144"><path
             id="path146"
             style="fill:#298e52;fill-opacity:1;fill-rule:nonzero;stroke:none"
             d="M 0,0 C 4.988,0 9.994,0.273 14.96,-0.061 23.293,-0.623 26.753,-5.185 25.572,-13.446 24.176,-23.217 17.16,-30.4 7.375,-30.954 c -9.947,-0.564 -19.942,-0.262 -29.916,-0.414 -2.49,-0.038 -3.285,0.908 -2.636,3.312 2.292,8.485 4.589,16.969 6.747,25.488 0.576,2.271 1.878,2.797 3.963,2.762 C -9.646,0.112 -4.822,0.168 0,0.168 Z" /></g><g
           transform="translate(671.8945,348.9629)"
           id="g148"><path
             id="path150"
             style="fill:#298e52;fill-opacity:1;fill-rule:nonzero;stroke:none"
             d="m 0,0 c 4.323,0 8.655,0.167 12.97,-0.037 7.457,-0.354 10.398,-4.147 9.215,-11.524 -1.139,-7.092 -7.469,-13.876 -14.637,-14.355 -9.109,-0.609 -18.277,-0.296 -27.419,-0.455 -2.598,-0.045 -2.554,1.291 -2.049,3.181 1.838,6.89 3.651,13.787 5.415,20.696 0.489,1.918 1.528,2.63 3.533,2.568 C -8.651,-0.059 -4.324,0.033 0,0.033 Z" /></g><g
           transform="translate(1062.3662,273.8525)"
           id="g152"><path
             id="path154"
             style="fill:#298e52;fill-opacity:1;fill-rule:nonzero;stroke:none"
             d="m 0,0 c -0.664,0 -1.33,-0.038 -1.992,0.006 -3.869,0.255 -7.845,0.486 -9.424,4.936 -1.389,3.915 0.874,9.686 4.974,12.069 6.216,3.613 12.917,4.281 19.628,1.595 6.077,-2.433 7.196,-8.011 2.655,-12.758 C 11.566,1.381 6.066,-0.195 0,0" /></g><g
           transform="translate(724.1934,273.8184)"
           id="g156"><path
             id="path158"
             style="fill:#298e52;fill-opacity:1;fill-rule:nonzero;stroke:none"
             d="m 0,0 c -0.631,0 -0.963,-0.008 -1.295,0.001 -6.537,0.173 -9.996,2.12 -10.723,6.032 -0.786,4.233 2.478,9.984 7.195,12.027 5.495,2.38 11.246,2.966 16.998,0.962 C 19.115,16.604 20.434,9.933 14.9,5.062 10.6,1.276 5.421,-0.281 0,0" /></g><g
           transform="translate(1029.1865,303.8955)"
           id="g160"><path
             id="path162"
             style="fill:#298e52;fill-opacity:1;fill-rule:nonzero;stroke:none"
             d="m 0,0 c -0.206,-15.464 -12.11,-28.18 -26.115,-27.897 -7.608,0.154 -12.11,3.924 -13.536,11.337 -2.744,14.251 10.28,30.637 24.748,31.137 C -5.39,14.906 0.128,9.511 0,0" /></g><g
           transform="translate(1441.3135,220.8789)"
           id="g164"><path
             id="path166"
             style="fill:#298e52;fill-opacity:1;fill-rule:nonzero;stroke:none"
             d="m 0,0 c -3.991,0.001 -7.982,0.048 -11.972,-0.015 -2.958,-0.047 -3.859,1.383 -3.208,4.092 0.077,0.322 0.201,0.632 0.295,0.951 5.788,19.791 0.859,15.969 20.86,16.393 3.49,0.074 6.984,-0.049 10.474,0.015 3.176,0.058 4.156,-1.31 3.297,-4.35 C 18.53,12.778 17.489,8.422 16.339,4.096 15.614,1.37 13.998,-0.133 10.973,-0.03 7.319,0.095 3.658,0 0,0" /></g></g></g></g></svg>
