<svg xmlns="http://www.w3.org/2000/svg" viewBox="0 0 1850 283.54">
    <defs>
        <style>.cls-2{fill:#fff22f;}.cls-3{fill:#232020;}</style>
    </defs>
    <title>Bach hoa XANH logo full</title>
    <g id="Layer_2" data-name="Layer 2">
        <g id="Layer_1-2" data-name="Layer 1">
            <path class="cls-2" d="M409.51,1a141.68,141.68,0,1,1-96.85,55.85A142.23,142.23,0,0,1,409.51,1Zm29,40.95c-10.34,2.67-17.58,13.69-15.71,24.24,1.28,10.25,10.85,18.7,21.22,18.48,9.71.38,18.88-6.74,21.24-16.1a21.78,21.78,0,0,0-26.75-26.62Zm53.79,23.3c-2.41,9-4.72,18-7.28,26.89-8.93-.08-17.87,0-26.8,0-2.46,9-4.85,18.07-7.29,27.11,9.06.13,18.12,0,27.18.06,2.48-9,4.85-18,7.26-27,8.95.23,17.91,0,26.86.12,2.46-9,4.91-18.08,7.27-27.14Q505.91,65.18,492.31,65.21ZM391.16,92.07c-2.53,8.94-4.77,18-7.3,26.92-8.92-.07-17.85,0-26.77,0-2.52,9-5,18.12-7.29,27.24,9,0,18,0,27.06,0,2.54-9,4.82-18,7.3-27,8.94.07,17.87,0,26.81,0q3.78-13.56,7.29-27.19Q404.72,92,391.16,92.07Zm26.3,27.19c9.05,0,18.09,0,27.13,0,2.44-9,4.83-18.11,7.32-27.14-9.07-.1-18.13,0-27.2-.06C422.26,101.1,419.77,110.16,417.46,119.26Zm-1.24,6.06c-2.55,9-4.88,18.15-7.35,27.22,9.06,0,18.12,0,27.19,0,2.47-9.05,4.93-18.11,7.26-27.2C434.29,125.31,425.25,125.36,416.22,125.32Zm-42,33.28c-2.58,9-4.84,18-7.32,27-8.94-.09-17.88,0-26.81-.05-2.52,9.09-5,18.2-7.32,27.36,9,0,18,0,27,0,2.61-8.94,4.81-18,7.32-27,9,0,17.89,0,26.83,0,2.52-9.09,5-18.2,7.31-27.34C392.22,158.59,383.21,158.65,374.2,158.6Zm67.08,0c-2.57,9.07-4.91,18.2-7.38,27.29,8.93.1,17.87,0,26.81,0-2.3,9-4.86,17.92-7.09,26.93,9,0,18.05,0,27.08,0,2.52-9.08,4.87-18.2,7.36-27.29-8.95-.14-17.9-.05-26.84-.05,2.3-9,4.91-17.89,7.09-26.91C459.3,158.6,450.29,158.64,441.28,158.61Z"/>
            <path class="cls-2" d="M837.19,69.22A8.45,8.45,0,0,1,847.85,63c2.85.43,3.48,3.75,2.71,6.09q-4.9,18.94-10,37.84c4.84-5.94,11.64-10.56,19.4-11.41,6.7-.8,14.52.22,19.13,5.67,4.84,5.9,4.73,14.16,3.19,21.25q-4.07,15.83-8.36,31.59a8.15,8.15,0,0,1-9,6.15,4.27,4.27,0,0,1-4.36-5.76c2.54-10.49,5.58-20.86,8.16-31.34.84-4.17,1.21-9.26-2-12.53-3.42-3.09-8.43-3.29-12.76-2.77-8.62,1.09-15.53,8.25-17.86,16.39-2.79,9.95-5.2,20-8,29.92-1.12,5.35-8.13,7.93-12.53,4.87-1.73-2.13-.77-4.88-.21-7.23C822.64,124.25,829.83,96.71,837.19,69.22Z"/>
            <path class="cls-2" d="M931,69.21c1-5.69,7.72-7.9,12.61-5.61.72,1.75,1.4,3.66.74,5.55-3.26,12.66-6.65,25.28-10,37.91C941.9,96.7,956.84,92,968.57,97.73c8.13,4.34,9.61,14.89,7.84,23.12-2.7,11.17-5.75,22.27-8.76,33.37-1.07,5.05-7.35,7.45-11.75,5.21-2.18-1.19-1.84-4-1.31-6,2.53-9.76,5.18-19.49,7.71-29.24,1-4.23,1.65-9.26-1.2-12.94-2.93-3.49-8-3.88-12.19-3.59-9.14.64-16.73,8-19.06,16.68-2.79,10-5.21,20-8,30-1.18,5.29-8.27,7.71-12.54,4.61-1.81-2.15-.58-5-.08-7.41C916.5,124.08,923.67,96.62,931,69.21Z"/>
            <path class="cls-2" d="M644.06,70.26a8.16,8.16,0,0,1,8-6.4c11-.17,22,0,32.93-.06,7.44.05,15.92,1.46,20.75,7.74,4.28,5.34,3.62,12.84,1.33,18.88-3,8.43-10.57,14.5-18.79,17.56,5,1.15,10.27,3.61,12.75,8.43,3.41,6.48,1.72,14.3-1,20.73C694,150.53,679.3,158.44,665,159c-12,.24-24,0-36,.12-2.07-.11-4.64.18-6.1-1.62s-.66-4.3-.26-6.34C629.79,124.22,636.8,97.2,644.06,70.26Zm12.06,6c-2.33,8.81-4.69,17.61-7,26.44,9-.05,17.92,0,26.88,0,9.08.29,17.63-7.37,18.29-16.44.31-2.78-.24-6.06-2.69-7.76-2.8-2-6.37-2.25-9.68-2.24C673.34,76.25,664.73,76.22,656.12,76.24Zm-18.61,70.43H661c6,.05,12.26.31,17.66-2.65,5.68-2.77,9-8.76,10.23-14.76.76-3.62.65-7.94-2.2-10.66-3.44-3.09-8.34-3.49-12.75-3.53-9.36,0-18.72,0-28.08,0Q641.62,130.84,637.51,146.67Z"/>
            <path class="cls-2" d="M753.45,64.78c2.27-.87,6.2-.54,6.54,2.49.42,3.28-2.07,5.69-4.17,7.79-3.24,3.12-6.22,6.48-9.52,9.52-2.08,2-5.43,3.08-8.07,1.55-1.91-1.35-1.42-4.24-.41-6,2.27-3.34,5.5-5.88,8.21-8.85C748.39,69,750.4,66.18,753.45,64.78Z"/>
            <path class="cls-2" d="M1030.42,64.77c1.95-.7,4.48-.57,6,1,1.25,2.37.12,5.33-1.67,7.11-3.12,3.28-6.38,6.41-9.49,9.69-2,2-4.19,4.27-7.22,4.23-1.7,0-4-.67-4.14-2.67-.54-4.65,3.9-7.36,6.59-10.41C1023.79,70.79,1026.34,66.78,1030.42,64.77Z"/>
            <path class="cls-2" d="M1141,64q14.28,0,28.57,0c5.49,9.76,10.76,19.65,16.21,29.43,7.62-6.83,15-13.93,22.55-20.81,3.2-2.82,6-6.16,9.56-8.53,9.43-.26,18.88-.06,28.33-.08-16.89,15.67-33.87,31.24-50.7,47,7.19,12.87,14.2,25.84,21.42,38.71,5.06-18.8,10-37.65,15-56.46,3.31-12.45,12.77-23.4,25-27.74,6.8-2.28,14.09-1.3,21.13-1.51,16.65,0,33.29,0,49.94,0,5.81-.07,12,1.94,15.56,6.74,5.07,6.32,5.38,15.1,3.39,22.65q-8.67,32.9-17.39,65.77c-7.3,0-14.59,0-21.88,0,2.56-10.11,5.34-20.18,8-30.28h-71.12q-4,15.13-8,30.29c-14.31.1-28.61,0-42.92,0-5.68-10.2-11.32-20.42-17.06-30.58-11,10.21-22.14,20.22-33,30.53-9.57.15-19.13,0-28.7.07q26-24.23,52.1-48.26C1158.31,95.21,1149.64,79.59,1141,64Zm113.44,27.67c-1.56,4.91-2.7,9.95-4,14.93,23.7,0,47.39,0,71.09,0,1.34-5.45,3.28-10.78,4-16.36.37-2.07-1.17-4.46-3.46-4q-30.54,0-61.09,0C1257.65,85.83,1255.31,88.77,1254.45,91.62Z"/>
            <path class="cls-2" d="M1360.1,63.93H1382c13.22,21.1,26.2,42.36,39.55,63.38,5.44-21.15,11.15-42.23,16.7-63.36q10.95,0,21.9,0-12.56,47.6-25.21,95.18c-7.24,0-14.47,0-21.7,0-13.29-21.23-26.23-42.68-39.43-64-5.7,21.3-11.28,42.64-17,63.94-7.33,0-14.65,0-22,0Q1347.47,111.51,1360.1,63.93Z"/>
            <path class="cls-2" d="M1440.3,159.11c8.45-31.72,16.7-63.51,25.27-95.21,7.29.09,14.58,0,21.88.09-3.14,12.12-6.4,24.22-9.58,36.33h56c3.27-12.13,6.34-24.32,9.71-36.42,7.33.06,14.66,0,22,.05-8.32,31.73-16.81,63.42-25.12,95.15q-11.09,0-22.14,0,4.86-18.27,9.67-36.57-28,0-56,0c-3.28,12.17-6.47,24.38-9.69,36.57C1455,159.12,1447.64,159.13,1440.3,159.11Z"/>
            <path class="cls-2" d="M722.93,97.18a60.86,60.86,0,0,1,23.51-1.28c5.57.89,11.57,3.49,14,8.94,2.76,6.18,1.38,13.19-.32,19.47-2.84,10.2-5.24,20.53-8.26,30.67-1.41,4.65-7.64,6.81-11.62,4.14-2.06-1.59-1-4.41-.81-6.57-8,7.57-20.09,10.1-30.57,7.08-5.48-1.6-10.19-6.46-10.36-12.37a23.56,23.56,0,0,1,10-19.39c7.52-5.39,17.37-6.83,26.34-5.13,4.22.8,7.73,3.41,10.78,6.29.93-5.25,3.64-10.73,1.58-16-1.13-3.52-4.81-5.31-8.23-5.83a38.86,38.86,0,0,0-17.58,1.78c-2.93.83-6.08,2.32-9.11,1.07-2.26-1.27-1.78-4.41-.81-6.37C714,99.74,718.74,98.39,722.93,97.18Zm.58,34.85c-6.47.79-11.93,6.72-11.31,13.35.25,3.16,3.25,5,6.09,5.64,6.91,1.36,14.66.38,20.25-4.18,2.52-2,4.4-5.2,3.84-8.51-.24-2.42-2.38-4-4.32-5.15C733.57,130.94,728.31,131.09,723.51,132Z"/>
            <path class="cls-2" d="M795.52,95.92c7.54-1.07,16-1.15,22.54,3.36,3.22,2.42,6.63,6.61,4.8,10.86-1.24,3.47-5.42,5.11-8.81,4-2.69-1.83-4.32-5-7.45-6.28-5.46-2.11-11.76-1.35-17,1.13-9.83,4.7-15.84,15.56-16,26.28-.07,4.95,2.32,10.21,6.94,12.43,6.58,3.11,14.67,1.84,20.53-2.27,2.86-1.81,5.8-4.92,9.53-3.67a3.51,3.51,0,0,1,2.67,4.44c-.47,3.11-3,5.27-5.22,7.2-8.87,7.08-21.18,9-32,6.23a21.17,21.17,0,0,1-14.57-12.8c-2.67-6.92-1.68-14.69.57-21.58C766.79,110.41,780.05,98.45,795.52,95.92Z"/>
            <path class="cls-2" d="M1010.59,96c7.13-1.18,14.92-1,21.41,2.52,7,3.83,11.07,11.89,11,19.76,0,21.17-17.85,40.85-39.07,42.46-8.12.7-17.31-1-22.77-7.57-5.68-6.39-6.52-15.68-4.52-23.71C980.23,113,994,99.11,1010.59,96Zm-2.25,11.76c-10.57,3.35-17.55,13.91-18.8,24.62-.74,5.17.53,11.16,5,14.36,5,3.43,11.63,3.16,17.1,1.16,11-4.24,17.66-16.12,17.65-27.58,0-5.11-2.8-10.46-7.72-12.37A21.9,21.9,0,0,0,1008.34,107.73Z"/>
            <path class="cls-2" d="M1054.44,99.7c8.24-3.88,17.6-4.75,26.61-4.24,6,.45,12.73,2.06,16.5,7.21,3.86,5.48,3.13,12.72,1.63,18.89-2.83,10.9-5.68,21.8-8.65,32.66-1.07,5-7.24,7.5-11.61,5.18-2.4-1.48-1.41-4.61-1.09-6.86-7.66,7.33-19.17,9.85-29.36,7.43-4.92-1.18-9.56-4.63-11.06-9.61-1.21-4.82-.06-10,2.25-14.28,3.67-7.13,11.14-11.59,18.8-13.23,8.77-1.77,19.24-1.07,25.45,6.21,1.15-4.81,3.06-9.7,2.15-14.72-.68-3.54-3.82-6.12-7.22-6.9-7.52-1.62-15.26,0-22.4,2.52-2.39.74-6.12,1.16-7.25-1.68C1048.31,104.49,1051.11,101.09,1054.44,99.7Zm8,32.22c-7.21.6-13.75,7.94-11.38,15.24,2.72,4.76,9.1,4.49,13.86,4.31,6.1-.62,13.27-3.37,15.54-9.59,1.37-3-.31-6.42-2.94-8C1073.11,131,1067.46,131.05,1062.45,131.92Z"/>
            <path class="cls-3" d="M438.52,41.91a21.78,21.78,0,0,1,26.75,26.62C462.91,77.89,453.74,85,444,84.63c-10.37.22-19.94-8.23-21.22-18.48C420.94,55.6,428.18,44.58,438.52,41.91Z"/>
            <path class="cls-3" d="M492.31,65.21q13.6,0,27.2,0c-2.36,9.06-4.81,18.1-7.27,27.14-8.95-.1-17.91.11-26.86-.12-2.41,9-4.78,18-7.26,27-9.06,0-18.12.07-27.18-.06,2.44-9,4.83-18.08,7.29-27.11,8.93,0,17.87-.06,26.8,0C487.59,83.17,489.9,74.18,492.31,65.21Z"/>
            <path class="cls-3" d="M391.16,92.07q13.54,0,27.1,0-3.51,13.64-7.29,27.19c-8.94,0-17.87,0-26.81,0-2.48,9-4.76,18-7.3,27-9-.05-18,0-27.06,0,2.3-9.12,4.77-18.19,7.29-27.24,8.92,0,17.85,0,26.77,0C386.39,110,388.63,101,391.16,92.07Z"/>
            <path class="cls-3" d="M417.46,119.26c2.31-9.1,4.8-18.16,7.25-27.22,9.07.06,18.13,0,27.2.06-2.49,9-4.88,18.09-7.32,27.14C435.55,119.27,426.51,119.23,417.46,119.26Z"/>
            <path class="cls-3" d="M416.22,125.32c9,0,18.07,0,27.1,0-2.33,9.09-4.79,18.15-7.26,27.2-9.07,0-18.13,0-27.19,0C411.34,143.47,413.67,134.36,416.22,125.32Z"/>
            <path class="cls-3" d="M374.2,158.6c9,.05,18,0,27,0-2.32,9.14-4.79,18.25-7.31,27.34-8.94-.05-17.88,0-26.83,0-2.51,9-4.71,18-7.32,27-9,0-18,0-27,0,2.3-9.16,4.8-18.27,7.32-27.36,8.93.06,17.87,0,26.81.05C369.36,176.58,371.62,167.55,374.2,158.6Z"/>
            <path class="cls-3" d="M441.28,158.61c9,0,18,0,27,0-2.18,9-4.79,17.92-7.09,26.91,8.94,0,17.89-.09,26.84.05-2.49,9.09-4.84,18.21-7.36,27.29-9,0-18.05,0-27.08,0,2.23-9,4.79-17.93,7.09-26.93-8.94,0-17.88.07-26.81,0C436.37,176.81,438.71,167.68,441.28,158.61Z"/>
        </g>
    </g>
</svg>
